<svg width="169.756" height="145" xmlns="http://www.w3.org/2000/svg">

 <g>
  <title>background</title>
  <rect fill="#000000" id="canvas_background" height="147" width="171.756" y="-1" x="-1"/>
 </g>
 <g>
  <title>Layer 1</title>
  <g id="svg_1" clip-rule="evenodd" fill-rule="evenodd">
   <path id="svg_2" d="m-11.499999,-23.877998l192.756,0l0,192.756l-192.756,0l0,-192.756z" fill="#fff"/>
   <path id="svg_3" fill="#0c0e0f" d="m39.906001,2.519002c-0.777,0.129 -1.553,0.259 -2.394,0.259c-0.906,0 -1.876,-0.13 -2.782,-0.259c0.388,3.947 0.452,9.9 0.452,18.312c0,9.318 -0.323,20.578 -11.647,20.578c-10.547,0 -12.618,-6.407 -12.618,-17.795c0,-7.895 0.129,-15.465 0.777,-21.095c-1.23,0.129 -2.524,0.259 -3.753,0.259c-1.294,0 -3.43,-0.13 -4.724,-0.259c0.194,2.718 0.905,7.959 0.905,14.43l0,11.583c0,11.388 6.471,16.371 17.536,16.371c11.194,0 17.277,-6.147 17.341,-18.377c0.066,-9.513 0.454,-19.478 0.907,-24.007zm38.825,0.388c-0.777,0.194 -1.553,0.324 -2.33,0.324c-0.776,0 -1.553,-0.13 -2.33,-0.324c0.453,5.953 0.453,19.865 0.453,29.959c-8.088,-8.412 -18.96,-20.253 -28.083,-30.283c-0.518,0 -1.165,0.064 -1.618,0.064c-0.453,0 -1.165,-0.064 -1.553,-0.064c0.129,2.718 0.259,7.441 0.259,13.912c0,10.03 -0.841,25.365 -1.294,27.631c0.841,-0.194 1.683,-0.324 2.523,-0.324c0.776,0 1.618,0.13 2.459,0.324c-0.259,-2.266 -0.518,-10.289 -0.518,-17.601c0,-5.371 0.064,-9.706 0.194,-13.071c9.707,10.288 19.477,20.836 28.148,31.06c0.388,-0.129 0.971,-0.129 1.359,-0.129c0.453,0 1.035,0 1.488,0.129c-0.065,-5.629 -0.129,-15.4 0,-21.807c0.066,-5.111 0.454,-13.976 0.843,-19.8zm32.548,27.695c0,-12.941 -22.777,-8.93 -22.777,-18.895c0,-3.688 3.301,-6.6 8.023,-6.6c4.658,0 7.117,2.588 8.283,5.371c0,0 0.711,-1.877 1.293,-2.783c0.777,-1.165 0.971,-1.229 2.201,-2.2c-2.719,-1.876 -6.602,-3.365 -11.26,-3.365c-8.734,0 -15.335,4.206 -15.335,11.648c0,13.783 22.001,9.188 22.001,19.218c0,4.076 -4.078,8.412 -9.836,8.412c-5.824,0 -9.06,-3.106 -10.095,-6.277c0,0 -0.582,1.877 -1.423,3.042c-1.1,1.488 -1.553,1.682 -2.523,2.524c2.523,1.876 7.958,4.399 13.136,4.399c10.935,0 18.248,-4.27 18.312,-14.494zm55.26,-27.695c-0.842,0.194 -1.553,0.324 -2.33,0.324c-0.711,0 -1.488,-0.13 -2.199,-0.324c-1.035,4.982 -7.053,25.106 -9.383,32.807l-0.129,0c-2.006,-7.053 -8.672,-26.918 -10.029,-32.807c-0.777,0.194 -1.553,0.324 -2.33,0.324c-0.842,0 -1.617,-0.13 -2.395,-0.324c-1.488,5.888 -7.699,24.459 -10.418,32.807l-0.064,0c-3.43,-11.777 -6.148,-21.612 -8.736,-32.807c-1.293,0.194 -2.523,0.324 -3.752,0.324c-1.295,0 -3.236,-0.13 -4.596,-0.324c0.973,2.2 4.531,11.971 5.436,15.142c3.172,10.159 5.566,19.606 7.248,26.078c0.777,-0.13 1.682,-0.324 2.459,-0.324c0.906,0 1.682,0.194 2.523,0.324c2.912,-9.836 8.219,-24.978 10.418,-31.772l0.129,0a570.197,570.197 0 0 1 9.836,31.772c0.842,-0.13 1.684,-0.324 2.523,-0.324c0.777,0 1.619,0.194 2.395,0.324c2.847,-9.772 11.517,-36.108 13.394,-41.22z"/>
   <path id="svg_4" fill="#d06332" d="m70.125001,107.280002c0.582,-0.84 -0.518,-1.1 -0.906,-1.035c0.129,-0.582 0.906,-1.1 1.488,-0.775c0.454,-0.26 0.842,-0.324 1.036,0.258c0.194,0.646 0.776,0.713 1.294,0.713c1.1,0 1.618,-0.777 1.553,-1.684c0,-0.322 0.194,-1.035 0.453,-1.229c0.129,-0.131 -1.1,-0.131 -1.359,-1.035c-0.518,0.322 -1.747,0.453 -2.135,0c0.194,-0.064 0.97,-0.26 0.776,-0.777c-0.259,-0.129 -0.453,-0.129 -0.776,0.064c0.064,-0.389 0.712,-0.646 0.582,-0.775c0,-0.324 -0.518,-0.195 -0.712,-0.131c0.194,-0.193 0.324,-0.453 0.453,-0.775c-0.259,-0.389 -0.647,-0.389 -1.165,-0.324c0.13,-0.389 0.842,-0.775 0.712,-1.1c-0.194,-0.193 -0.453,-0.064 -0.712,-0.064c0.13,0 0.13,0 0.259,-0.129c0.065,-0.131 0.259,-0.324 0.388,-0.518c0,-0.195 -0.388,-0.26 -0.712,-0.195c0.389,-0.582 0.776,-0.711 1.488,-1.1c0.13,-0.195 0,-0.518 -0.194,-0.518c-0.388,0.129 -0.712,-0.064 -0.776,-0.518c-0.129,-0.064 -0.129,-0.195 -0.129,-0.26c0.194,0 0.518,0.064 0.582,-0.129c0.259,-0.064 0.259,-0.193 0,-0.389c-0.194,0 -0.453,0.064 -0.647,0c-0.259,-0.129 0,-0.387 -0.324,-0.387c-0.711,-0.131 -0.841,-1.037 -0.453,-1.424c0,-0.131 0.647,0.904 0.842,0.193c-0.065,-0.582 -0.518,-0.906 -1.035,-1.035c0.646,-0.646 1.553,-0.26 1.747,0c0.194,0.129 0.388,0 0.518,0c0,-0.064 0.194,-0.193 0.064,-0.389c-0.064,-0.389 -0.388,-0.389 -0.712,-0.518c0.647,-0.518 1.618,-0.258 1.941,0.518c0.194,0.195 0.841,0.129 0.712,0.582c0,0.453 -0.389,0 -0.389,2.072c0.065,1.1 0.777,2.393 0.971,2.264c0.129,-0.193 0.323,-0.389 0.323,-0.646c0,-0.131 -0.129,0 -0.194,-0.131c0.194,-0.711 0.388,-1.1 0.711,-1.617l-0.453,0c0.129,-0.389 0.518,-0.775 0.776,-1.1c0.064,-0.129 -0.453,-0.193 -0.647,-0.324c0.194,-0.193 0.841,-0.711 0.711,-0.775c-0.064,-0.195 -0.194,-0.195 -0.388,-0.389c0.194,-0.193 0.777,-0.324 0.906,-0.842c0,-0.129 -0.194,-0.322 -0.323,-0.322l0.712,0a2.263,2.263 0 0 1 1.035,0.129c0.065,-0.129 0,-0.389 -0.129,-0.582c0.647,0.064 0.841,0 0.906,-0.518c0.129,0 0.194,0.193 0.388,0.193c0.647,0.195 1.1,0.518 1.553,0.971c0.518,-0.389 1.229,-0.389 1.812,-0.258c0.194,-0.131 0.259,-0.131 0.518,-0.131c-0.518,0.648 0.583,0.713 1.101,0.389c0.518,0.646 0.518,1.164 0,1.748c0.323,0.193 0.582,0.775 0.711,0.711c0.712,-0.906 2.2,-1.229 2.007,-1.812c-0.195,-0.646 -0.584,-0.646 -1.23,-0.646c0.129,-0.258 0.842,-0.389 1.424,-0.389l0,-0.711c1.1,0.193 1.553,1.424 2.199,1.617c0.648,0.129 1.424,-0.258 1.877,-0.775l0.064,0c-0.064,1.293 1.23,0.258 1.619,0.518c0.064,0.971 -1.941,1.357 -2.006,1.811c-0.195,0.582 0.064,0.713 0.193,0.906c-0.129,0 -0.711,0.064 -0.711,0.389c0.322,0.518 1.229,0.193 1.422,-0.064c0.195,-0.648 -0.193,-0.842 -0.322,-0.971c0.193,-0.064 0.389,0.193 0.711,-0.064c0,-0.195 -0.064,-0.324 -0.193,-0.389c0.518,0.193 0.775,0.389 1.488,0.258c0.258,-0.064 0.129,-0.387 0.129,-0.518c0.389,0.131 0.777,0.453 1.1,0.648c0.389,-0.131 0.324,-0.518 0.131,-0.906c0.387,-0.129 0.775,0.971 1.293,1.164c0.193,0 0.389,-0.193 0.389,-0.453c0.129,0 0.129,0.195 0.129,0.195c0.582,2.523 1.488,0.193 1.877,0.518c0,0 0,0.064 -0.064,0.064c-0.129,0.193 -0.195,0.646 -0.195,0.906c0.389,1.553 -1.1,1.811 -1.1,1.939c0.064,3.43 -3.365,3.43 -5.305,2.977c0.518,1.359 1.939,1.359 2.07,2.33c0.064,0.324 0.193,1.359 0.453,1.553c0.518,0.389 1.422,-0.129 1.875,-0.387c0.777,0 0.777,0.451 0.906,0.582c0.777,0.129 1.359,-0.324 2.006,-0.518c0.26,0.129 -0.389,0.84 -0.129,0.84c0.193,0 0.193,-0.129 0.324,-0.129c0.064,0.389 -0.195,0.777 -0.131,1.035c0,0.064 0.195,0.195 0.324,0.195c0,0.193 -0.324,0.064 -0.518,0.518c0.193,0.193 0.646,0.064 0.711,0.064c-0.193,0.387 -0.904,0.84 -0.904,1.035c0,0.064 0.387,0.064 0.518,0.064c-0.195,0.324 -0.713,0.389 -0.713,0.646c0,0.064 0.195,0.195 0.195,0.195c-0.195,0.258 -0.906,0.451 -0.842,0.711c0.258,0.064 0.453,0.195 0.646,0.26c-0.711,0.518 -1.035,0.646 -1.746,0.646c0,0.258 -0.066,0.453 -0.26,0.711c-0.129,0.064 -0.389,0.389 -0.711,0.389c0.193,-0.646 -0.131,-1.229 -0.648,-1.229c-0.064,0 -0.064,0.129 -0.064,0.193c0.195,0.646 -0.129,1.295 -1.035,1.1c-0.389,0.518 -1.488,0.518 -2.07,-0.064l-0.129,-0.129c0.518,-0.064 0.775,-0.064 1.229,-0.26c0,-0.258 0,-0.322 -0.129,-0.518c-0.518,0 -1.1,0.195 -1.617,0.518c0,0.064 0,0 0,0c0,-0.711 0.389,-1.617 1.035,-1.617c0.193,-0.518 0.258,-0.453 0.389,-0.646c-0.324,-0.195 -0.906,-0.389 -1.295,-0.26l-0.193,0c0.453,-1.035 1.164,-1.1 1.811,-0.84c0.195,-0.066 0.518,-0.26 0.713,-0.195c0.389,0 0.389,0.582 0.711,0.777c0.389,0.129 0.842,-0.453 0.842,-0.842c0,-0.842 -1.164,-1.035 -2.07,-0.842c-0.648,0.131 -1.23,0 -1.748,-0.387a10.443,10.443 0 0 1 -1.293,-1.102c-0.131,0 -0.131,0.066 -0.131,0.195c-0.064,0.258 -0.387,0.711 0,1.1c0.324,0.193 0.971,0.389 0.971,0.906c0,0.193 0,0.518 -0.322,0.582c-0.195,0.324 -0.648,0.389 -0.713,0.842c0,0.582 0.064,0.711 0.389,1.229c-0.324,0.064 -0.906,-0.129 -1.23,-0.258c-0.193,0.129 -0.451,0.646 -0.582,0.904c-0.322,0.131 -0.387,-0.646 -0.518,-0.582c-0.064,0 -0.518,0.518 -0.389,0.582c-0.193,0.131 -0.387,-0.582 -0.387,-0.775c-0.389,0.193 -0.518,0.582 -0.518,0.906c-0.195,-0.131 -0.324,-0.389 -0.389,-0.582l-0.129,0c-0.26,0.387 -0.584,0.451 -1.037,0.387c-0.194,0 0.13,-0.387 0.13,-0.518l-0.194,0c-0.194,0.324 -1.294,0.324 -1.294,0.131c0.259,-0.195 0.583,-0.518 0.518,-0.842c-0.129,-0.193 -0.259,-0.193 -0.323,-0.131c-0.389,0.26 -0.583,0.648 -1.036,1.037c-0.388,0.129 -0.711,0 -0.906,-0.26c-0.583,0 -1.1,0 -1.618,0.389l-0.065,0c0.194,-1.035 0.518,-1.229 1.1,-1.424c0,-0.193 0,-0.518 -0.129,-0.646c-0.388,-0.26 -0.776,-0.195 -1.229,0c-0.064,-0.26 0.518,-1.359 1.359,-0.971c0.065,0 0.194,-0.131 0.194,-0.195c-0.194,-0.646 -0.582,-0.646 -1.035,-0.518c0,-0.582 0.906,-1.293 1.553,-0.84c0.065,-0.064 0.259,-0.195 0.388,-0.195c0.518,-0.064 0.583,0.453 0.906,0.648c0.194,0.064 0.582,0.193 0.906,0.518c0.323,0.451 0.582,0.451 1.229,0.582c0.389,0 0.777,0 1.23,-0.131c0.646,-0.193 0.646,-1.1 0.064,-1.164c-0.711,-0.129 -1.295,0.195 -1.941,0c-0.97,-0.258 -1.165,-0.518 -1.165,-1.746c-0.841,0.387 -2.718,1.035 -3.171,1.1c-0.194,0.324 -0.582,0.389 -0.906,0.389c-0.194,0.258 0.324,0.84 0.388,0.84c-0.194,0.195 -1.553,0.842 -1.358,0.906c0,0.129 0.064,0.129 0.194,0.195c-0.129,0.129 -0.518,0.193 -0.583,0.322c0,0.064 0.065,0.195 0.194,0.195c-0.324,0.193 -0.712,0.064 -1.035,0.387c-0.194,0.131 -0.518,0.195 -0.906,0.324c-0.129,0.195 0.129,0.389 0,0.518c-1.553,0.389 -1.812,-0.453 -2.2,-0.322c-0.194,0.062 -0.453,0.322 -0.647,0.518c0.129,0.582 -0.388,1.486 -0.97,1.486c-0.259,-0.064 0.193,-0.322 -0.13,-0.711c0,-0.064 -0.129,-0.064 -0.194,-0.193c-0.323,0 -0.193,1.035 -0.905,0.904c-0.13,-0.064 -0.194,-0.193 -0.324,-0.193c-0.776,0.518 -1.1,0.711 -2.005,0l-0.065,0c1.488,-0.389 1.683,-1.811 -0.323,-1.293l-0.13,0c0.192,-0.838 0.71,-1.098 1.228,-1.098zm14.43,-11.324l0,-0.193c0.582,1.1 1.812,1.229 2.912,0.971c1.941,-0.26 4.658,-1.359 6.406,-1.359c0.582,0 2.006,0.26 2.006,1.166c0,0.646 -0.195,1.035 -0.648,1.357c-0.582,0.389 -2.07,0.584 -2.717,0.584c-0.389,0 -2.006,0 -2.33,-0.713c-0.258,-0.064 -0.646,-0.193 -1.1,-0.193c-1.424,0 -2.977,0.711 -4.206,0.711c-0.323,-0.001 -0.388,-1.813 -0.323,-2.331zm3.105,-2.523c0.648,0.389 1.035,1.102 1.748,1.424c0.129,0.195 -1.553,0.713 -2.137,0.713c-1.1,0 -1.422,-0.518 -1.422,-1.035c0.001,-0.714 1.036,-1.489 1.811,-1.102zm-28.342,-3.041l13.524,0l0,-9.836l21.031,0l0,9.836l13.588,0l0,21.031l-13.588,0l0,14.17l-10.418,3.754l-10.612,-3.754l0,-14.17l-13.525,0l0,-21.031z"/>
   <path id="svg_5" d="m59.318001,61.468002l48.143,0l0,18.117l-48.143,0l0,-18.117z" fill="#e0ebf2"/>
   <path id="svg_6" fill="#0c0e0f" d="m58.024001,60.173002l0,58.496c0,2.783 1.876,3.494 3.494,4.012l21.936,7.959l21.807,-7.959c1.617,-0.518 3.559,-1.422 3.559,-4.012l0,-58.496l-50.796,0zm1.294,52.025l12.748,0l0,13.201l-10.547,-3.947c-1.1,-0.389 -2.2,-1.295 -2.2,-2.783l0,-6.471l-0.001,0zm48.143,0l-12.682,0l0,13.201l10.482,-3.947c1.1,-0.389 2.199,-1.295 2.199,-2.783l0,-6.471l0.001,0zm-12.682,-31.642l12.682,0l0,8.93l-12.682,0l0,-8.93zm-35.461,0l12.748,0l0,8.93l-12.748,0l0,-8.93zm10.678,26.724c0.711,-0.84 -0.453,-1.1 -0.906,-1.035c0.259,-0.582 1.035,-1.1 1.617,-0.775c0.454,-0.324 0.906,-0.324 1.036,0.258c0.194,0.646 0.776,0.713 1.294,0.713c1.035,0 1.618,-0.777 1.424,-1.684c0,-0.322 0.194,-0.906 0.518,-1.229c0.064,-0.131 -1.101,-0.131 -1.294,-1.035c-0.518,0.322 -1.812,0.518 -2.135,0c0.064,-0.064 0.97,-0.389 0.776,-0.713c-0.388,-0.193 -0.453,0 -0.776,0c0,-0.389 0.712,-0.646 0.582,-0.775c-0.194,-0.324 -0.518,0 -0.776,0c0.194,-0.324 0.389,-0.584 0.389,-0.906c-0.13,-0.389 -0.583,-0.389 -1.036,-0.324c-0.064,-0.389 0.842,-0.775 0.647,-1.1c-0.129,-0.064 -0.388,0 -0.647,-0.064c0,0 0.13,0 0.13,-0.129c0.194,-0.131 0.388,-0.324 0.388,-0.518c0,-0.195 -0.388,-0.195 -0.583,-0.195c0.324,-0.711 0.776,-0.711 1.424,-1.1c0.064,-0.195 0.064,-0.389 -0.129,-0.389c-0.388,0 -0.712,-0.193 -0.906,-0.646c0,-0.064 -0.065,-0.195 0,-0.26c0.194,0 0.388,0 0.582,-0.129c0.259,-0.064 0.13,-0.193 0,-0.324c-0.194,-0.064 -0.453,0.131 -0.647,-0.064c-0.324,0 -0.129,-0.387 -0.453,-0.387c-0.712,-0.131 -0.712,-1.166 -0.324,-1.555c0,0 0.647,0.906 0.777,0.324c0,-0.582 -0.518,-0.906 -1.035,-1.035c0.583,-0.646 1.488,-0.26 1.812,0c0.194,0.129 0.323,0 0.518,0c0,-0.064 0.194,-0.193 0.064,-0.389c-0.194,-0.389 -0.388,-0.389 -0.712,-0.518c0.518,-0.518 1.618,-0.258 2.071,0.453c0.194,0.26 0.712,0.193 0.712,0.646s-0.453,0 -0.453,2.072c0,1.1 0.712,2.393 0.906,2.264c0.129,-0.193 0.194,-0.389 0.323,-0.646c0,0 -0.194,0 -0.194,-0.131c0.064,-0.582 0.388,-1.1 0.711,-1.617l-0.453,0c0,-0.389 0.453,-0.775 0.776,-1.1c0,-0.129 -0.518,-0.129 -0.647,-0.324c0.129,-0.193 0.711,-0.711 0.711,-0.775c-0.194,-0.195 -0.323,-0.195 -0.388,-0.389c0.065,-0.193 0.712,-0.324 0.906,-0.842c0,-0.129 -0.323,-0.322 -0.388,-0.322c0.065,-0.064 0.388,0 0.712,0c0.647,-0.064 1.1,0 1.1,0c0.065,-0.064 -0.129,-0.26 -0.129,-0.453c0.518,0.064 0.841,0 0.906,-0.518c0.129,0 0.194,0.193 0.388,0.193c0.518,0.195 1.1,0.518 1.553,0.971c0.518,-0.389 1.229,-0.389 1.812,-0.389c0.259,-0.064 0.389,0 0.518,0c-0.518,0.648 0.583,0.648 1.101,0.324c0.518,0.711 0.518,1.229 0,1.812c0.323,0.193 0.582,0.775 0.711,0.711c0.712,-0.906 2.2,-1.229 2.007,-1.812c-0.195,-0.646 -0.713,-0.646 -1.23,-0.646c0.129,-0.389 0.713,-0.389 1.424,-0.389c0,-0.258 -0.064,-0.518 0,-0.711c1.1,0.193 1.553,1.424 2.199,1.553c0.648,0.064 1.359,-0.324 1.877,-0.711l0.064,0c-0.064,1.229 1.23,0.258 1.619,0.518c0.064,1.1 -1.812,1.357 -2.006,1.875c-0.195,0.518 0.193,0.648 0.322,0.842c-0.129,0.064 -0.84,0.064 -0.775,0.389c0.322,0.389 1.164,0.193 1.229,-0.064c0.324,-0.648 -0.193,-0.842 -0.193,-0.971c0.129,-0.064 0.389,0.129 0.646,-0.064c0.064,-0.195 -0.129,-0.324 -0.129,-0.389c0.389,0.064 0.775,0.389 1.488,0.193c0.258,-0.129 0,-0.322 0.129,-0.518c0.389,0.064 0.777,0.518 1.1,0.713c0.324,-0.131 0.195,-0.518 0.131,-1.035c0.387,-0.066 0.775,1.1 1.293,1.229c0.193,0.064 0.389,-0.193 0.389,-0.389c0.129,0 0.129,0.064 0.129,0.195c0.713,2.523 1.488,0.064 1.877,0.518c0.129,0 0,0.064 0,0.064c-0.193,0.193 -0.26,0.646 -0.193,0.906c0.451,1.553 -1.166,1.939 -1.102,1.939c0.131,3.43 -3.43,3.496 -5.24,3.107c0.518,1.1 1.811,1.229 1.941,2.199c0.064,0.324 0.193,1.23 0.453,1.553c0.518,0.324 1.422,-0.193 1.875,-0.518c0.777,0.131 0.777,0.582 0.906,0.713c0.777,0.129 1.359,-0.389 2.07,-0.582c0.195,0.193 -0.387,0.904 -0.064,0.775c0.064,0 0.064,-0.064 0.195,0c0.064,0.389 -0.195,0.777 -0.131,1.035c0.131,0.064 0.195,0.064 0.453,0.195c-0.129,0.193 -0.322,0.064 -0.518,0.518c0.064,0.064 0.518,0.064 0.713,0.064c-0.195,0.387 -0.906,0.84 -1.035,1.035c0.129,0.064 0.387,0.064 0.518,0.064c0,0.324 -0.584,0.389 -0.713,0.646c0.129,0.064 0.195,0.064 0.324,0.195c-0.195,0.258 -1.035,0.582 -0.842,0.711c0.129,0.064 0.324,0.195 0.518,0.26c-0.646,0.518 -1.035,0.646 -1.746,0.646c0,0.258 0,0.453 -0.26,0.711c-0.129,0.195 -0.518,0.389 -0.842,0.389c0.195,-0.646 0,-1.229 -0.518,-1.229c0,0.129 -0.064,0.129 -0.064,0.193c0.195,0.646 -0.129,1.295 -1.035,1.229c-0.389,0.52 -1.617,0.52 -2.199,-0.193l0,-0.193c0.518,0 0.775,0 1.229,-0.195c0,-0.258 0,-0.322 -0.129,-0.453c-0.518,-0.064 -1.1,0.195 -1.617,0.453c0,0.064 0,0 0,0c-0.064,-0.711 0.389,-1.617 1.035,-1.617c0.193,-0.646 0.258,-0.453 0.258,-0.646c-0.258,-0.195 -0.775,-0.26 -1.164,-0.26c-0.129,0 -0.193,0.064 -0.324,0c0.518,-1.035 1.295,-1.1 1.941,-0.84c0.195,-0.195 0.518,-0.389 0.713,-0.26c0.389,0 0.453,0.646 0.711,0.842c0.389,0.129 0.842,-0.453 0.842,-0.842c0,-0.842 -1.359,-0.971 -2.07,-0.842c-0.648,0.131 -1.23,0 -1.812,-0.387c-0.389,-0.324 -0.842,-0.648 -1.229,-1.035c-0.131,-0.066 -0.131,0 -0.131,0.129c-0.064,0.258 -0.258,0.711 0,1.1c0.324,0.193 0.971,0.389 1.035,0.906c-0.064,0.193 -0.064,0.518 -0.322,0.711c-0.26,0.195 -0.713,0.389 -0.713,0.777c-0.064,0.518 0,0.646 0.453,1.164c-0.453,0.195 -1.035,0 -1.359,-0.129c-0.064,0 -0.387,0.582 -0.451,0.775c-0.324,0.131 -0.518,-0.646 -0.648,-0.582c-0.064,0.131 -0.389,0.518 -0.389,0.713c-0.193,0.064 -0.387,-0.713 -0.518,-0.777c-0.193,0.195 -0.387,0.453 -0.387,0.777c-0.195,-0.131 -0.324,-0.324 -0.518,-0.518c-0.26,0.322 -0.713,0.518 -1.101,0.387c-0.129,-0.064 0.194,-0.387 0.064,-0.451c0,-0.131 -0.064,0 -0.064,0c-0.194,0.258 -1.423,0.258 -1.423,0c0.324,-0.195 0.647,-0.518 0.518,-0.842c0,-0.193 -0.129,-0.131 -0.194,-0.131c-0.389,0.26 -0.583,0.777 -1.036,1.037c-0.388,0.193 -0.711,0.129 -0.906,-0.195c-0.583,-0.064 -1.1,-0.064 -1.618,0.389c0,-0.064 -0.065,-0.064 -0.065,-0.064c0.194,-1.035 0.518,-1.229 1.1,-1.424c0,-0.193 0,-0.389 -0.194,-0.646c-0.323,-0.195 -0.841,-0.064 -1.165,0.129c-0.194,-0.193 0.453,-1.617 1.359,-1.1c0.065,0 0.065,-0.131 0.194,-0.195c-0.194,-0.646 -0.582,-0.646 -1.035,-0.387c-0.064,-0.842 0.906,-1.424 1.553,-1.035c0.065,-0.131 0.259,-0.131 0.388,-0.195c0.518,0 0.583,0.518 0.906,0.713c0.194,0.064 0.711,0.193 0.906,0.518c0.323,0.451 0.582,0.451 1.229,0.582c0.389,0 0.777,0 1.102,-0.131c0.711,-0.193 0.711,-1.1 0.193,-1.1c-0.711,-0.064 -1.295,0.131 -1.941,-0.064c-0.97,-0.258 -1.294,-0.518 -1.294,-1.617c-0.712,0.258 -2.588,0.906 -3.042,0.971c-0.194,0.324 -0.518,0.389 -0.906,0.518c-0.194,0.129 0.388,0.711 0.388,0.711c0,0.195 -1.488,0.906 -1.358,0.906c0.064,0.129 0.194,0.129 0.259,0.195c0,0.193 -0.583,0.193 -0.647,0.322c0.065,0.064 0.194,0.195 0.259,0.195c-0.259,0.322 -0.777,0.193 -1.1,0.518c-0.194,0.064 -0.518,0.193 -0.777,0.258c-0.259,0.131 0.065,0.324 0,0.453c-1.682,0.389 -1.941,-0.322 -2.33,-0.26c-0.194,0 -0.453,0.26 -0.647,0.455c0.129,0.582 -0.388,1.617 -1.1,1.617c-0.194,-0.195 0.194,-0.453 0,-0.842c0,-0.064 -0.129,-0.064 -0.194,-0.064c-0.323,0 -0.193,0.971 -0.905,0.775c-0.13,0 -0.194,-0.193 -0.324,-0.064c-0.776,0.389 -1.229,0.582 -2.07,-0.129c1.488,-0.389 1.683,-1.811 -0.453,-1.293c0.126,-0.839 0.643,-1.099 1.097,-1.099zm14.559,-11.324c0,-0.129 0,-0.129 0.129,-0.129c0.453,1.164 1.683,1.23 2.783,1.035c2.07,-0.322 4.658,-1.488 6.406,-1.488c0.582,0 2.006,0.26 2.006,1.166c0,0.646 -0.195,1.035 -0.648,1.357c-0.582,0.389 -2.07,0.584 -2.717,0.584c-0.389,0 -1.877,-0.131 -2.33,-0.713c-0.258,-0.193 -0.646,-0.324 -1.1,-0.324c-1.424,0 -2.977,0.842 -4.206,0.842c-0.323,0 -0.388,-1.812 -0.323,-2.33zm3.105,-2.523c0.518,0.389 0.971,1.102 1.748,1.488c0,0.131 -1.553,0.648 -2.137,0.648c-1.1,0 -1.422,-0.518 -1.422,-1.035c0.001,-0.584 1.036,-1.488 1.811,-1.101zm-28.342,-3.041l13.524,0l0,-9.836l21.031,0l0,9.836l13.588,0l0,21.031l-13.588,0l0,14.17l-10.418,3.754l-10.612,-3.754l0,-14.17l-13.525,0l0,-21.031z"/>
   <path id="svg_7" fill="#e7eef3" d="m58.801001,126.823002s1.747,-0.777 2.977,-0.389l21.548,7.764l20.901,-7.506c2.135,-0.775 3.752,0 3.752,0.26l0,8.219c-0.711,-0.389 -2.135,-0.906 -3.752,-0.26l-20.901,7.248l-20.771,-7.443c-1.618,-0.518 -2.848,0.066 -3.753,0.389l0,-8.282l-0.001,0z"/>
   <path id="svg_8" fill="#0c0e0f" d="m106.684001,132.259002c-0.646,0.322 -1.617,0.646 -2.264,0.84l-0.193,0c0.129,-0.322 0.193,-0.711 0.129,-1.035c-0.324,-0.582 -0.518,-1.293 -0.842,-2.006c-0.064,-0.324 -0.389,-0.389 -0.582,-0.582l0.064,0c0.646,-0.324 1.553,-0.518 2.135,-0.842c0.195,-0.064 0.389,-0.193 0.648,-0.064c0.064,0.26 0.387,0.453 0.387,0.777c-0.322,0.193 -0.518,-0.131 -0.711,-0.195c-0.389,-0.129 -0.906,0.064 -1.295,0.324c-0.129,0 0,0.064 0,0.193c0.066,0.26 0.195,0.584 0.26,0.906c0.453,-0.129 0.906,-0.193 1.035,-0.646c0,-0.064 0.064,-0.064 0.193,-0.064c0.195,0.064 0.131,0.258 0.195,0.389c0,0.193 0.193,0.387 0.193,0.518c-0.258,0.064 -0.518,-0.324 -0.775,-0.131c-0.195,0 -0.389,0.131 -0.584,0.195c0.066,0.518 0.195,1.035 0.453,1.424c0.389,0.129 1.23,-0.066 1.424,-0.713c0.129,-0.193 0,-0.453 0.195,-0.582c0.129,-0.129 0.193,0.129 0.193,0.193c0.001,0.323 0.13,1.034 -0.258,1.101zm-4.27,1.552c-0.064,0 -0.389,0.193 -0.713,0.193c0,-0.129 0.131,-0.193 0.131,-0.453c0.193,-0.646 -0.584,-2.07 -0.906,-2.977c-0.324,-0.129 -0.646,0.26 -0.713,0.518c-0.193,0.064 -0.129,0.389 -0.322,0.453c-0.26,0 -0.064,-0.258 -0.195,-0.453c-0.064,-0.129 -0.193,-0.258 -0.193,-0.453c0,-0.064 2.199,-0.775 3.041,-1.1c0.26,-0.064 0.26,0.324 0.453,0.389c0,0.193 0.26,0.453 0,0.646c-0.193,0 -0.193,-0.322 -0.389,-0.322c-0.258,-0.195 -0.582,-0.131 -0.906,0c-0.193,-0.131 -0.064,0.129 -0.064,0.193c0.26,0.842 0.584,1.941 0.971,2.652c0.131,0.195 0.389,0.195 0.518,0.389c-0.131,0.066 -0.389,0.066 -0.713,0.325zm-2.783,0.776c-0.906,-0.582 -1.941,-1.424 -2.848,-2.135c0,-0.064 -0.129,-0.064 -0.129,0c0.453,0.842 0.518,1.746 1.102,2.523c0.129,0.129 0.451,0.129 0.322,0.324c-0.193,0.129 -0.389,0 -0.582,0.193c-0.193,-0.064 -0.389,0.195 -0.518,-0.064c0.324,-0.842 -0.195,-1.617 -0.389,-2.459c-0.129,-0.193 -0.193,-0.518 -0.324,-0.777c-0.387,0.066 -0.582,0.453 -0.711,0.777c-0.129,0.193 -0.193,0 -0.324,-0.064c-0.193,-0.129 -0.387,-0.324 -0.646,-0.324a2.279,2.279 0 0 0 -0.906,0.389c0.064,0.389 0.195,0.842 0.389,1.1c0,0.129 0.064,0.129 0.195,0.129c0.193,-0.129 0.582,-0.193 0.711,-0.646l0.064,0c0.193,0.26 0.324,0.518 0.324,0.713c-0.131,0.129 -0.195,-0.066 -0.324,0c-0.258,0 -0.582,0.129 -0.906,0.258c0.195,0.453 0.324,0.906 0.518,1.295c0.131,0.193 0.518,0.193 0.713,0.064c0.582,-0.193 0.904,-0.777 0.904,-1.359l0.195,0c0.193,0.26 0.193,0.648 0.322,0.971c0,0.129 0,0.195 -0.129,0.324c-0.775,0.193 -1.424,0.389 -2.199,0.711c-0.129,0 -0.324,0.064 -0.518,0.195c-0.064,-0.131 -0.064,0 -0.064,-0.131c-0.131,-0.064 0,-0.064 0,-0.193c0.258,-0.582 -0.131,-1.229 -0.453,-2.135c-0.064,-0.26 -0.26,-1.102 -0.713,-1.102c-0.064,0 -0.064,0.131 -0.064,0.131l0,0.193c-0.129,0 -0.322,0 -0.389,0.064c0,0 -0.129,0 -0.129,0.129c0,0.389 0.195,0.713 0.324,1.102c0.258,0.646 0.389,1.488 0.971,1.941c0.129,0.064 0,0.064 -0.064,0.193c-0.324,0.129 -0.713,0.129 -1.035,0.324c-0.195,-0.131 0,-0.453 0,-0.648c0,-0.322 -0.066,-0.711 -0.195,-1.1c-0.193,-0.389 -0.322,-0.777 -0.518,-1.295c-0.064,0.195 -0.064,0.518 -0.193,0.713c-0.064,0.711 -0.064,1.488 -0.064,2.199c0,0.131 -0.131,0.131 -0.195,0.131c-0.129,0 -0.258,-0.131 -0.258,-0.195c-0.518,-0.518 -1.359,-1.617 -2.006,-2.07c-0.064,-0.064 0,0.195 0,0.324c0.322,0.711 0.518,1.488 0.906,2.135c0.129,0.193 0.193,0.26 0.387,0.389c0,0.129 0.131,0.129 0,0.129c-0.193,0.064 -0.387,0.064 -0.582,0.193c-0.193,0 -0.389,0.26 -0.582,0.066c0.258,-0.518 0.064,-1.102 -0.129,-1.619c-0.195,-0.582 -0.389,-1.1 -0.518,-1.617l-0.064,-0.064c-0.324,0.193 -0.195,0.389 -0.453,0.711c0,0.066 -0.066,0.066 -0.066,0.066c-0.129,-0.195 0,-0.389 0,-0.584c0,-0.322 0.324,-0.711 0.52,-0.84c0.387,-0.066 0.775,-0.066 1.1,0.258c0.518,0.453 0.971,1.1 1.488,1.553l0.129,0c0,-0.646 0.129,-1.488 0.193,-2.07c0.131,-0.193 0.195,-0.646 0.518,-0.711c0.195,-0.131 0.389,-0.195 0.584,-0.131c0.129,-0.064 0.322,-0.193 0.387,-0.258c0.842,-0.324 1.555,-0.646 2.33,-0.842l0.129,0.129c0.064,0.066 0.064,0.26 0.26,0.389c0,-0.193 0.129,-0.389 0.322,-0.582c0.324,-0.324 0.906,-0.453 1.359,-0.129c0.582,0.322 1.812,1.488 2.266,1.617c-0.064,-0.518 -0.389,-1.035 -0.582,-1.488c-0.066,-0.324 -0.324,-0.711 -0.584,-0.711c-0.129,0 -0.129,-0.131 -0.129,-0.195a8.615,8.615 0 0 1 1.23,-0.322c0.064,0.064 -0.131,0.322 -0.131,0.518c0.131,0.775 0.324,1.357 0.648,2.07c0.064,0.453 0.258,0.711 0.387,1.035c0.064,0.192 -0.389,0.387 -0.584,0.192zm-13.07,1.424c-0.064,0 -0.453,-0.518 -0.906,-0.389c-0.194,0.066 -0.582,0.195 -0.582,0.389c0.258,0.713 0.388,1.035 0.582,1.684c0.129,0.518 0.518,1.229 0.842,1.357c0.064,0 0.064,0.064 0.064,0.064c-0.26,0.195 -0.711,0.195 -0.971,0.324c-0.129,0.064 -0.324,0.193 -0.518,0.193c-0.129,-0.193 0.194,-0.322 0.194,-0.518c0,-0.322 -0.129,-0.582 -0.388,-1.422c-0.129,-0.389 -0.388,-1.424 -0.518,-1.488c-0.388,0 -0.777,0.064 -0.906,0.518c-0.129,0.064 -0.194,0.322 -0.194,0.518l-0.323,0c-0.13,-0.453 -0.13,-0.842 -0.518,-1.166c-0.065,-0.064 -0.583,-0.193 -0.906,-0.258c-0.388,-0.129 -0.259,0.389 -0.388,0.582c-0.065,0.193 -0.388,0.518 0,0.711c0.323,0.131 0.583,0.195 1.035,0.131c0.065,0.064 0.065,0.193 0.065,0.258c-0.065,0.195 -0.065,0.453 -0.259,0.518c-0.259,-0.064 -0.259,-0.322 -0.453,-0.389c-0.194,-0.129 -0.388,-0.193 -0.583,-0.322l-0.194,0c-0.129,0.518 -0.453,1.035 -0.324,1.424c0.129,0.193 0.712,0.387 0.906,0.518c0.518,0.064 1.036,-0.131 1.294,-0.453c0.129,-0.064 0.194,-0.195 0.324,0l0,0.129c-0.194,0.324 -0.389,0.842 -0.777,0.906c-0.841,-0.324 -2.071,-0.713 -2.976,-1.1c-0.065,-0.131 0,-0.131 0,-0.131c0.518,0 0.905,-1.293 1.035,-1.553c0.064,-0.646 0.323,-0.971 0.323,-1.424c0,-0.193 -0.259,-0.322 -0.259,-0.518c0.324,0 0.647,0.195 1.035,0.324c0.389,0.064 0.841,0.26 1.229,0.389c0.259,0.064 0.583,0.258 1.035,0.193c0.971,-0.322 1.877,-0.711 2.784,-1.035c0.193,0.324 0.518,0.906 0.387,1.035l-0.191,0l0,0.001zm-8.024,-1.424c-0.323,0 -0.453,0.389 -0.518,0.584c-0.259,0.322 -0.323,0.646 -0.453,1.035c-0.194,0.518 -0.388,1.1 -0.906,1.293c-0.194,0.129 -0.388,0.129 -0.583,0.129c-0.582,0 -1.682,-0.387 -1.812,-1.1c-0.13,-0.518 0.194,-1.035 0.388,-1.553c0.129,-0.453 0.518,-0.971 0.324,-1.617c-0.129,0 -0.129,-0.064 -0.129,-0.195c0.129,-0.064 0.323,0 0.323,0c0.324,0.195 0.583,0.324 0.906,0.389c0.129,0 0.389,0 0.324,0.26c-0.194,0.064 -0.518,0.193 -0.712,0.453c-0.323,0.646 -0.518,1.357 -0.711,2.006c-0.129,0.322 0.064,0.646 0.388,0.84c0.194,0.195 0.647,0.195 0.906,0.195c0.647,-0.064 0.906,-1.424 1.1,-1.877c0.129,-0.453 0.324,-0.842 0,-1.164c0,-0.066 0,-0.195 0.129,-0.195c0.259,0.129 0.712,0.324 1.035,0.453c0.066,-0.001 0.066,0.064 0.001,0.064zm-4.141,-1.424c-0.647,0.324 -0.841,1.035 -1.036,1.748c-0.194,0.389 -0.388,0.777 -0.647,1.164c0,0.131 0,0.195 -0.065,0.324c-0.129,0 -0.323,0 -0.388,-0.129c0,0 -0.13,-0.064 -0.13,-0.195a13.647,13.647 0 0 1 -0.388,-1.682c0,-0.389 -0.13,-0.906 -0.194,-1.295c0,-0.129 -0.13,-0.453 -0.194,-0.453c-0.323,0.518 -0.388,0.906 -0.647,1.424c-0.064,0.453 -0.258,1.035 -0.193,1.23c0.129,0.129 0.193,0.193 0.129,0.322c-0.129,0.195 -0.194,0 -0.453,-0.129c-0.258,0 -0.453,-0.064 -0.646,-0.193c0,-0.129 0.064,-0.195 0.194,-0.195c0.388,-0.193 0.583,-0.84 0.712,-1.229c0.194,-0.518 0.258,-0.777 0.518,-1.295c0.065,-0.129 0.065,-0.322 0,-0.322c-0.259,-0.066 -0.453,0 -0.647,0.193c-0.13,0 -0.13,0 -0.13,-0.064c0,-0.195 0.259,-0.195 0.324,-0.324c0.193,-0.193 0.518,-0.322 0.905,-0.193c0.194,0 0.453,0.129 0.518,0.389c0.388,0.84 0.518,1.746 0.582,2.652c0.129,0.064 0,0.26 0.129,0.389c0.194,-0.518 0.389,-1.035 0.583,-1.488c0,-0.324 0.259,-0.842 -0.065,-1.23c0,0 0.065,0 0.065,-0.129c0.453,0.193 0.906,0.324 1.23,0.518c0.127,0.128 -0.002,0.128 -0.066,0.192zm-5.371,1.941c-0.324,-0.129 -0.842,-0.193 -1.229,-0.322c0,-0.066 -0.194,-0.195 -0.13,-0.195c0.13,-0.064 0.259,-0.064 0.259,-0.064c0.389,-0.258 0.259,-0.711 0.259,-1.164a4.906,4.906 0 0 1 -1.165,-0.389c-0.323,0.324 -0.518,0.842 -0.453,1.229c-0.065,0.195 -0.259,0.066 -0.389,0c-0.194,-0.129 -0.258,-0.129 -0.518,-0.193c-0.064,0 -0.259,-0.129 -0.259,-0.193c0.064,-0.26 0.194,0 0.518,-0.26c0.647,-0.646 1.294,-1.553 1.876,-2.395c0.129,-0.064 -0.324,-0.064 -0.518,0c-0.194,0 -0.259,0.195 -0.388,0.131l0,-0.131c0.388,-0.322 0.906,-0.582 1.424,-0.387c0.518,0.193 0.582,0.711 0.582,1.229l0,2.523c0,0.064 0.13,0.389 0.324,0.453c0.001,0.128 -0.129,0.128 -0.193,0.128zm-0.842,-2.134c-0.259,-0.064 -0.711,-0.193 -0.906,-0.389c0.129,-0.389 0.518,-0.711 0.841,-1.1c0.065,0.194 0.065,1.424 0.065,1.489zm-1.876,-2.524c-0.13,0 -0.324,-0.064 -0.388,0c-0.259,0.193 -0.454,0.711 -0.518,1.1c-0.259,0.646 -0.518,1.1 -0.647,1.617c0,0.195 0.194,0.324 0.13,0.518c-0.13,0.131 -0.194,0 -0.324,0c-0.194,-0.129 -0.582,-0.193 -0.776,-0.387c-0.13,0 -0.194,-0.131 -0.13,-0.131c0.13,-0.064 0.647,-0.387 0.712,-0.711c0.194,-0.582 0.388,-1.164 0.582,-1.812l-0.064,0c-0.841,0.648 -1.488,1.23 -2.135,1.941c-0.129,0.195 -0.194,0.064 -0.324,0c0,-0.389 0,-0.711 -0.064,-1.617c0,-0.129 0,-1.1 -0.129,-1.295a5.961,5.961 0 0 0 -0.583,1.488c-0.194,0.389 -0.388,0.906 -0.129,1.23c0,0.064 0,0.064 -0.064,0.064c-0.389,-0.064 -0.841,-0.26 -1.23,-0.389l0,-0.064c0.518,-0.129 0.841,-0.842 1.101,-1.359c0.194,-0.518 0.518,-0.971 0.711,-1.488c-0.064,-0.129 -0.259,-0.193 -0.388,-0.322c-0.323,0 -0.388,0.193 -0.712,0.322c-0.064,-0.129 0,-0.193 0,-0.193c0.324,-0.389 0.712,-0.518 1.1,-0.389c0.324,0.064 0.841,0.26 0.841,0.646c0.194,0.713 0.194,1.619 0.194,2.33l0,0.129c0.906,-0.711 1.488,-1.422 2.329,-1.746c0.389,-0.064 0.583,0 0.776,0.129c0.13,0 0.194,0.195 0.194,0.324c0,0.065 0,0.065 -0.065,0.065z"/>
   <path id="svg_9" fill="#0c0e0f" d="m59.253001,127.210002s1.294,-0.711 2.524,-0.193l21.548,7.766l20.901,-7.572c2.135,-0.711 3.363,-0.064 3.363,0l0,7.312c-0.711,-0.453 -1.746,-0.711 -3.363,-0.129l-20.901,7.377l-20.771,-7.572c-1.618,-0.646 -2.459,-0.129 -3.301,0.324l0,-7.313zm-1.229,-0.582c0,-0.193 2.071,-1.293 4.53,-0.389l20.771,7.248l20.901,-7.248c2.457,-0.904 4.594,0.389 4.594,0.389l0,9.643c-0.518,-0.26 -2.459,-1.488 -4.594,-0.777l-20.901,7.377l-20.771,-7.441c-2.006,-0.713 -3.753,0.582 -4.53,0.842l0,-9.644z"/>
   <path id="svg_10" fill="#b2a43f" d="m59.512001,127.534002s1.101,-0.582 2.265,-0.193l21.548,7.764l20.901,-7.57c1.939,-0.582 3.17,-0.193 3.17,-0.129l0,6.664c-0.713,-0.389 -1.617,-0.582 -3.17,0l-20.901,7.248l-20.771,-7.441c-1.489,-0.518 -2.136,-0.195 -3.042,0.193l0,-6.536zm0.324,0.193s0.906,-0.518 1.941,-0.129l21.548,7.83l20.901,-7.506c1.617,-0.582 2.846,-0.389 2.846,-0.324l0,5.953c-0.582,-0.258 -1.553,-0.258 -2.846,0.129l-20.901,7.377l-20.771,-7.506c-1.424,-0.453 -1.812,-0.258 -2.718,0.129l0,-5.953zm38.566,-55.583l0,4.013l-1.552,-0.971l0,-2.005l1.552,-1.037z"/>
   <path id="svg_11" d="m97.949001,72.985002l0,2.395l-1.099,-0.713l0,-1.035l1.099,-0.647z" fill="#0c0e0f"/>
   <path id="svg_12" d="m97.885001,73.050002l0,2.201l-1.035,-0.647l0,-0.972l1.035,-0.582z" fill="#fae935"/>
   <path id="svg_13" d="m98.402001,64.509002l0,4.141l-1.552,-1.035l0,-2.136l1.552,-0.97z" fill="#b2a43f"/>
   <path id="svg_14" d="m97.949001,65.415002l0,2.265l-1.099,-0.647l0,-1.036l1.099,-0.582z" fill="#0c0e0f"/>
   <path id="svg_15" d="m97.885001,65.479002l0,2.136l-1.035,-0.712l0,-0.777l1.035,-0.647z" fill="#fae935"/>
   <path id="svg_16" stroke-miterlimit="2.613" stroke-width="0.706" stroke="#0c0e0f" fill="#e7eef3" d="m72.130001,63.667002l0,12.295c3.947,0.129 8.995,-0.775 9.512,-0.711c1.1,0 1.683,0.646 1.812,0.646c0,-0.129 0.583,-0.646 1.294,-0.646c1.035,-0.064 5.888,0.84 10.031,0.711l0,-12.165l-10.03,0c-0.971,0 -1.294,0.582 -1.294,0.582c-0.129,0 -0.518,-0.582 -1.424,-0.582l-9.901,-0.13z"/>
   <path id="svg_17" d="m65.919001,97.964002l1.747,-0.906l-0.841,1.746l2.006,0.646l-2.006,0.777l0.841,1.749l-1.747,-0.842l-0.648,1.877l-0.711,-1.877l-1.941,0.842l1.035,-1.749l-2.006,-0.777l2.006,-0.646l-0.906,-1.746l1.812,0.906l0.711,-2.008l0.648,2.008zm18.118,-13.719l1.813,-0.906l-0.907,1.812l2.071,0.711l-2.071,0.647l0.907,1.877l-1.813,-1.035l-0.582,2.07l-0.712,-2.07l-1.942,1.035l1.035,-1.877l-2.005,-0.647l2.005,-0.711l-0.905,-1.812l1.812,0.906l0.712,-1.877l0.582,1.877zm18.117,13.719l1.813,-0.906l-0.971,1.746l2.07,0.646l-2.07,0.777l0.971,1.749l-1.813,-0.842l-0.711,1.877l-0.646,-1.877l-1.877,0.842l0.971,-1.749l-2.006,-0.777l2.006,-0.646l-0.971,-1.746l1.877,0.906l0.646,-2.008l0.711,2.008zm-18.117,17.082l1.813,-1.035l-0.907,1.941l2.071,0.582l-2.071,0.711l0.907,1.813l-1.813,-0.907l-0.582,1.942l-0.712,-1.942l-1.942,0.907l1.035,-1.813l-2.005,-0.711l2.005,-0.582l-0.905,-1.941l1.812,1.035l0.712,-2.07l0.582,2.07z" fill="#b2a43f"/>
   <path id="svg_18" fill="#0c0e0f" d="m66.113001,97.380002l2.07,-0.84l-0.776,2.135l2.136,0.775l-2.136,0.971l0.776,2.072l-2.07,-0.906l-0.841,2.135l-0.906,-2.135l-2.135,0.906l0.841,-2.072l-2.136,-0.971l2.136,-0.775l-0.841,-2.135l2.135,0.84l0.906,-2.135l0.841,2.135zm-0.194,0.584l1.682,-0.777l-0.906,1.682l1.941,0.582l-1.941,0.648l0.906,1.682l-1.682,-0.775l-0.647,1.941l-0.712,-1.941l-1.812,0.904l1.036,-1.811l-1.941,-0.648l1.941,-0.582l-0.906,-1.682l1.682,0.777l0.712,-1.812l0.647,1.812z"/>
   <path id="svg_19" fill="#fae935" d="m84.490001,83.079002l2.782,-1.164l-1.1,2.848l2.848,1.1l-2.848,1.1l1.1,2.719l-2.782,-1.102l-1.165,2.848l-1.1,-2.848l-2.782,1.102l1.165,-2.719l-2.847,-1.1l2.847,-1.1l-1.1,-2.848l2.718,1.164l0.906,-2.07l0.518,0l0.84,2.07zm-0.13,0.389l2.394,-1.035l-0.904,2.395l2.523,1.035l-2.523,0.906l0.904,2.523l-2.394,-0.971l-0.906,2.395l-1.035,-2.395l-2.524,0.971l1.035,-2.523l-2.329,-0.906l2.329,-1.035l-1.035,-2.395l2.524,1.035l0.841,-2.135l0.323,0l0.777,2.135zm18.183,13.201l2.783,-1.1l-1.1,2.781l2.846,1.1l-2.846,1.166l1.1,2.781l-2.783,-1.1l-1.1,2.719l-1.164,-2.719l-2.783,1.1l1.229,-2.781l-2.846,-1.166l2.846,-1.1l-1.164,-2.781l2.719,1.1l1.164,-2.719l1.099,2.719zm-18.312,-12.812l2.459,-0.971l-1.035,2.523l2.523,0.84l-2.523,1.037l1.035,2.459l-2.459,-0.971l-0.971,2.328l-0.971,-2.395l-2.588,1.037l1.1,-2.459l-2.395,-1.037l2.395,-0.969l-1.035,-2.395l2.523,0.971l0.971,-2.523l0.971,2.525zm0.259,29.829l2.782,-1.1l-1.1,2.848l2.848,1.1l-2.848,1.1l1.1,2.848l-2.782,-1.1l-1.165,2.717l-1.1,-2.717l-2.782,1.1l1.165,-2.848l-2.847,-1.1l2.847,-1.1l-1.1,-2.848l2.718,1.1l1.1,-2.717l1.164,2.717zm-0.389,-29.375l2.394,-1.035l-0.904,2.395l2.523,1.035l-2.523,1.035l0.904,2.395l-2.394,-1.035l-0.906,2.459l-1.035,-2.459l-2.524,1.035l1.035,-2.395l-2.329,-1.035l2.329,-1.035l-1.035,-2.395l2.524,1.035l1.035,-2.523l0.906,2.523z"/>
   <path id="svg_20" fill="#0c0e0f" d="m84.231001,83.727002l2.136,-0.906l-0.777,2.266l2.07,0.775l-2.07,0.842l0.777,2.07l-2.136,-0.777l-0.776,2.137l-0.906,-2.137l-2.265,0.777l0.971,-2.07l-2.135,-0.842l2.135,-0.775l-0.841,-2.266l2.135,0.906l0.906,-2.07l0.776,2.07zm-0.194,0.647l1.746,-0.906l-0.905,1.812l1.876,0.582l-1.876,0.646l0.905,1.684l-1.746,-0.842l-0.583,1.941l-0.712,-1.941l-1.812,0.971l1.036,-1.812l-1.941,-0.646l1.941,-0.582l-0.906,-1.812l1.683,0.906l0.712,-1.941l0.582,1.94zm18.313,13.006l2.07,-0.84l-0.906,2.135l2.135,0.775l-2.135,0.971l0.906,2.072l-2.07,-0.906l-0.906,2.135l-0.842,-2.135l-2.199,0.906l0.906,-2.072l-2.137,-0.971l2.137,-0.775l-0.842,-2.135l2.135,0.84l0.842,-2.135l0.906,2.135zm-18.509,-12.422l1.684,-0.777l-0.906,1.682l1.941,0.582l-1.941,0.648l0.906,1.682l-1.684,-0.775l-0.711,1.941l-0.646,-1.941l-1.812,0.904l0.906,-1.811l-1.812,-0.648l1.812,-0.582l-0.777,-1.682l1.684,0.777l0.646,-1.812l0.71,1.812zm0.39,29.441l2.136,-0.906l-0.777,2.135l2.07,0.906l-2.07,0.842l0.777,2.07l-2.136,-0.777l-0.776,2.135l-0.906,-2.135l-2.265,0.906l0.971,-2.199l-2.135,-0.842l2.135,-0.906l-0.841,-2.135l2.135,0.906l0.906,-2.072l0.776,2.072zm-0.584,-28.794l1.746,-0.842l-0.905,1.748l1.876,0.582l-1.876,0.582l0.905,1.812l-1.746,-0.906l-0.583,1.941l-0.712,-1.941l-1.812,0.906l1.036,-1.812l-1.941,-0.582l1.941,-0.582l-0.906,-1.748l1.683,0.842l0.712,-1.941l0.582,1.941z"/>
   <path id="svg_21" fill="#fae935" d="m59.707001,90.780002l13.523,0l0,-9.836l20.318,0l0,9.836l13.652,0l0,20.189l-13.652,0l0,14.365l-10.094,3.623l-10.224,-3.623l0,-14.365l-13.523,0l0,-20.189zm0.388,0.453l13.588,0l0,-9.9l19.477,0l0,9.9l13.523,0l0,19.348l-13.523,0l0,14.43l-9.706,3.43l-9.771,-3.43l0,-14.43l-13.588,0l0,-19.348z"/>
   <path id="svg_22" fill="#b2a43f" d="m69.996001,107.280002c0.711,-0.84 -0.453,-1.1 -0.906,-1.035c0.259,-0.582 1.035,-1.1 1.617,-0.775c0.454,-0.324 0.906,-0.324 1.036,0.258c0.194,0.646 0.776,0.713 1.294,0.713c1.035,0 1.618,-0.777 1.424,-1.684c0,-0.322 0.194,-0.906 0.518,-1.229c0.064,-0.131 -1.101,-0.131 -1.294,-1.035c-0.518,0.322 -1.812,0.518 -2.135,0c0.064,-0.064 0.97,-0.389 0.776,-0.713c-0.388,-0.193 -0.453,0 -0.776,0c0,-0.389 0.712,-0.646 0.582,-0.775c-0.194,-0.324 -0.518,0 -0.776,0c0.194,-0.324 0.389,-0.584 0.389,-0.906c-0.13,-0.389 -0.583,-0.389 -1.036,-0.324c-0.064,-0.389 0.842,-0.775 0.647,-1.1c-0.129,-0.064 -0.388,0 -0.647,-0.064c0,0 0.13,0 0.13,-0.129c0.194,-0.131 0.388,-0.324 0.388,-0.518c0,-0.195 -0.388,-0.195 -0.583,-0.195c0.324,-0.711 0.776,-0.711 1.424,-1.1c0.064,-0.195 0.064,-0.389 -0.129,-0.389c-0.388,0 -0.712,-0.193 -0.906,-0.646c0,-0.064 -0.065,-0.195 0,-0.26c0.194,0 0.388,0 0.582,-0.129c0.259,-0.064 0.13,-0.193 0,-0.324c-0.194,-0.064 -0.453,0.131 -0.647,-0.064c-0.324,0 -0.129,-0.387 -0.453,-0.387c-0.712,-0.131 -0.712,-1.166 -0.324,-1.555c0,0 0.647,0.906 0.777,0.324c0,-0.582 -0.518,-0.906 -1.035,-1.035c0.583,-0.646 1.488,-0.26 1.812,0c0.194,0.129 0.323,0 0.518,0c0,-0.064 0.194,-0.193 0.064,-0.389c-0.194,-0.389 -0.388,-0.389 -0.712,-0.518c0.518,-0.518 1.618,-0.258 2.071,0.453c0.194,0.26 0.712,0.193 0.712,0.646s-0.453,0 -0.453,2.072c0,1.1 0.712,2.393 0.906,2.264c0.129,-0.193 0.194,-0.389 0.323,-0.646c0,0 -0.194,0 -0.194,-0.131c0.064,-0.582 0.388,-1.1 0.711,-1.617l-0.453,0c0,-0.389 0.453,-0.775 0.776,-1.1c0,-0.129 -0.518,-0.129 -0.647,-0.324c0.129,-0.193 0.711,-0.711 0.711,-0.775c-0.194,-0.195 -0.323,-0.195 -0.388,-0.389c0.065,-0.193 0.712,-0.324 0.906,-0.842c0,-0.129 -0.323,-0.322 -0.388,-0.322c0.065,-0.064 0.388,0 0.712,0c0.647,-0.064 1.1,0 1.1,0c0.065,-0.064 -0.129,-0.26 -0.129,-0.453c0.518,0.064 0.841,0 0.906,-0.518c0.129,0 0.194,0.193 0.388,0.193c0.518,0.195 1.1,0.518 1.553,0.971c0.518,-0.389 1.229,-0.389 1.812,-0.389c0.259,-0.064 0.389,0 0.518,0c-0.518,0.648 0.583,0.648 1.101,0.324c0.518,0.711 0.518,1.229 0,1.812c0.323,0.193 0.582,0.775 0.711,0.711c0.712,-0.906 2.2,-1.229 2.007,-1.812c-0.195,-0.646 -0.713,-0.646 -1.23,-0.646c0.129,-0.389 0.713,-0.389 1.424,-0.389c0,-0.258 -0.064,-0.518 0,-0.711c1.1,0.193 1.553,1.424 2.199,1.553c0.648,0.064 1.359,-0.324 1.877,-0.711l0.064,0c-0.064,1.229 1.23,0.258 1.619,0.518c0.064,1.1 -1.812,1.357 -2.006,1.875c-0.195,0.518 0.193,0.648 0.322,0.842c-0.129,0.064 -0.84,0.064 -0.775,0.389c0.322,0.389 1.164,0.193 1.229,-0.064c0.324,-0.648 -0.193,-0.842 -0.193,-0.971c0.129,-0.064 0.389,0.129 0.646,-0.064c0.064,-0.195 -0.129,-0.324 -0.129,-0.389c0.389,0.064 0.775,0.389 1.488,0.193c0.258,-0.129 0,-0.322 0.129,-0.518c0.389,0.064 0.777,0.518 1.1,0.713c0.324,-0.131 0.195,-0.518 0.131,-1.035c0.387,-0.066 0.775,1.1 1.293,1.229c0.193,0.064 0.389,-0.193 0.389,-0.389c0.129,0 0.129,0.064 0.129,0.195c0.713,2.523 1.488,0.064 1.877,0.518c0.129,0 0,0.064 0,0.064c-0.193,0.193 -0.26,0.646 -0.193,0.906c0.451,1.553 -1.166,1.939 -1.102,1.939c0.131,3.43 -3.43,3.496 -5.24,3.107c0.518,1.1 1.811,1.229 1.941,2.199c0.064,0.324 0.193,1.23 0.453,1.553c0.518,0.324 1.422,-0.193 1.875,-0.518c0.777,0.131 0.777,0.582 0.906,0.713c0.777,0.129 1.359,-0.389 2.07,-0.582c0.195,0.193 -0.387,0.904 -0.064,0.775c0.064,0 0.064,-0.064 0.195,0c0.064,0.389 -0.195,0.777 -0.131,1.035c0.131,0.064 0.195,0.064 0.453,0.195c-0.129,0.193 -0.322,0.064 -0.518,0.518c0.064,0.064 0.518,0.064 0.713,0.064c-0.195,0.387 -0.906,0.84 -1.035,1.035c0.129,0.064 0.387,0.064 0.518,0.064c0,0.324 -0.584,0.389 -0.713,0.646c0.129,0.064 0.195,0.064 0.324,0.195c-0.195,0.258 -1.035,0.582 -0.842,0.711c0.129,0.064 0.324,0.195 0.518,0.26c-0.646,0.518 -1.035,0.646 -1.746,0.646c0,0.258 0,0.453 -0.26,0.711c-0.129,0.195 -0.518,0.389 -0.842,0.389c0.195,-0.646 0,-1.229 -0.518,-1.229c0,0.129 -0.064,0.129 -0.064,0.193c0.195,0.646 -0.129,1.295 -1.035,1.229c-0.389,0.52 -1.617,0.52 -2.199,-0.193l0,-0.193c0.518,0 0.775,0 1.229,-0.195c0,-0.258 0,-0.322 -0.129,-0.453c-0.518,-0.064 -1.1,0.195 -1.617,0.453c0,0.064 0,0 0,0c-0.064,-0.711 0.389,-1.617 1.035,-1.617c0.193,-0.646 0.258,-0.453 0.258,-0.646c-0.258,-0.195 -0.775,-0.26 -1.164,-0.26c-0.129,0 -0.193,0.064 -0.324,0c0.518,-1.035 1.295,-1.1 1.941,-0.84c0.195,-0.195 0.518,-0.389 0.713,-0.26c0.389,0 0.453,0.646 0.711,0.842c0.389,0.129 0.842,-0.453 0.842,-0.842c0,-0.842 -1.359,-0.971 -2.07,-0.842c-0.648,0.131 -1.23,0 -1.812,-0.387c-0.389,-0.324 -0.842,-0.648 -1.229,-1.035c-0.131,-0.066 -0.131,0 -0.131,0.129c-0.064,0.258 -0.258,0.711 0,1.1c0.324,0.193 0.971,0.389 1.035,0.906c-0.064,0.193 -0.064,0.518 -0.322,0.711c-0.26,0.195 -0.713,0.389 -0.713,0.777c-0.064,0.518 0,0.646 0.453,1.164c-0.453,0.195 -1.035,0 -1.359,-0.129c-0.064,0 -0.387,0.582 -0.451,0.775c-0.324,0.131 -0.518,-0.646 -0.648,-0.582c-0.064,0.131 -0.389,0.518 -0.389,0.713c-0.193,0.064 -0.387,-0.713 -0.518,-0.777c-0.193,0.195 -0.387,0.453 -0.387,0.777c-0.195,-0.131 -0.324,-0.324 -0.518,-0.518c-0.26,0.322 -0.713,0.518 -1.101,0.387c-0.129,-0.064 0.194,-0.387 0.064,-0.451c0,-0.131 -0.064,0 -0.064,0c-0.194,0.258 -1.423,0.258 -1.423,0c0.324,-0.195 0.647,-0.518 0.518,-0.842c0,-0.193 -0.129,-0.131 -0.194,-0.131c-0.389,0.26 -0.583,0.777 -1.036,1.037c-0.388,0.193 -0.711,0.129 -0.906,-0.195c-0.583,-0.064 -1.1,-0.064 -1.618,0.389c0,-0.064 -0.065,-0.064 -0.065,-0.064c0.194,-1.035 0.518,-1.229 1.1,-1.424c0,-0.193 0,-0.389 -0.194,-0.646c-0.323,-0.195 -0.841,-0.064 -1.165,0.129c-0.194,-0.193 0.453,-1.617 1.359,-1.1c0.065,0 0.065,-0.131 0.194,-0.195c-0.194,-0.646 -0.582,-0.646 -1.035,-0.387c-0.064,-0.842 0.906,-1.424 1.553,-1.035c0.065,-0.131 0.259,-0.131 0.388,-0.195c0.518,0 0.583,0.518 0.906,0.713c0.194,0.064 0.711,0.193 0.906,0.518c0.323,0.451 0.582,0.451 1.229,0.582c0.389,0 0.777,0 1.102,-0.131c0.711,-0.193 0.711,-1.1 0.193,-1.1c-0.711,-0.064 -1.295,0.131 -1.941,-0.064c-0.97,-0.258 -1.294,-0.518 -1.294,-1.617c-0.712,0.258 -2.588,0.906 -3.042,0.971c-0.194,0.324 -0.518,0.389 -0.906,0.518c-0.194,0.129 0.388,0.711 0.388,0.711c0,0.195 -1.488,0.906 -1.358,0.906c0.064,0.129 0.194,0.129 0.259,0.195c0,0.193 -0.583,0.193 -0.647,0.322c0.065,0.064 0.194,0.195 0.259,0.195c-0.259,0.322 -0.777,0.193 -1.1,0.518c-0.194,0.064 -0.518,0.193 -0.777,0.258c-0.259,0.131 0.065,0.324 0,0.453c-1.682,0.389 -1.941,-0.322 -2.33,-0.26c-0.194,0 -0.453,0.26 -0.647,0.455c0.129,0.582 -0.388,1.617 -1.1,1.617c-0.194,-0.195 0.194,-0.453 0,-0.842c0,-0.064 -0.129,-0.064 -0.194,-0.064c-0.323,0 -0.193,0.971 -0.905,0.775c-0.13,0 -0.194,-0.193 -0.324,-0.064c-0.776,0.389 -1.229,0.582 -2.07,-0.129c1.488,-0.389 1.683,-1.811 -0.453,-1.293c0.126,-0.839 0.643,-1.099 1.097,-1.099zm14.559,-11.324c0,-0.129 0,-0.129 0.129,-0.129c0.453,1.164 1.683,1.23 2.783,1.035c2.07,-0.322 4.658,-1.488 6.406,-1.488c0.582,0 2.006,0.26 2.006,1.166c0,0.646 -0.195,1.035 -0.648,1.357c-0.582,0.389 -2.07,0.584 -2.717,0.584c-0.389,0 -1.877,-0.131 -2.33,-0.713c-0.258,-0.193 -0.646,-0.324 -1.1,-0.324c-1.424,0 -2.977,0.842 -4.206,0.842c-0.323,0 -0.388,-1.812 -0.323,-2.33zm3.105,-2.523c0.518,0.389 0.971,1.102 1.748,1.488c0,0.131 -1.553,0.648 -2.137,0.648c-1.1,0 -1.422,-0.518 -1.422,-1.035c0.001,-0.584 1.036,-1.488 1.811,-1.101z"/>
   <path id="svg_23" fill="#00aae8" d="m92.902001,106.634002a6.804,6.804 0 0 0 -0.195,0.518c-0.258,-0.193 -0.453,-0.193 -0.971,-0.129c0.067,-0.26 0.778,-0.778 1.166,-0.389zm-0.453,1.812a0.442,0.442 0 0 0 0.064,0.518c0.129,0.193 -0.453,0.129 -0.777,0.322c0,-0.193 0.325,-0.84 0.713,-0.84zm0.776,1.553c0.131,0.064 0.195,0.193 0.324,0.258c-0.129,0.195 -1.035,0.324 -1.1,-0.064c0.258,-0.001 0.582,-0.001 0.776,-0.194zm-11.517,-1.941c0,0.129 0,0.193 0.129,0.389l-0.129,0c-0.453,0 -0.583,0.129 -0.906,0.258c-0.001,-0.323 0.646,-0.841 0.906,-0.647zm-0.195,-1.813c0.129,0.129 0,0 0,0.518l-0.194,0c-0.259,-0.129 -0.518,-0.129 -0.711,0c0.129,-0.389 0.646,-0.518 0.905,-0.518zm0.647,-1.488c-0.129,0.195 -0.194,0.389 -0.194,0.453c0,0.129 -0.13,0 -0.13,0c-0.194,-0.064 -0.388,-0.193 -0.582,-0.193c0.194,-0.26 0.712,-0.518 0.906,-0.26zm-3.364,-9.123c0,-0.064 0.129,0 0.129,0c-0.129,0.453 -0.194,0.84 -0.194,1.1c0,0.129 0.065,0.129 0.065,0.129c0.194,-0.322 0.518,-1.424 0.647,-1.1c0.259,0.711 -0.647,1.812 -0.841,1.682c-0.065,-0.001 -0.324,-1.165 0.194,-1.811zm-5.566,-3.883l-0.065,0c-0.193,0 -0.323,0.193 -0.518,0c-0.129,-0.193 -0.193,-0.324 -0.323,-0.453c0.324,-0.065 0.648,0.129 0.906,0.453zm-2.588,0.389c0.324,-0.129 0.776,0 0.906,0.193c0,0.064 -0.194,0.389 -0.324,0.324c-0.258,-0.517 -0.776,-0.453 -0.582,-0.517zm-0.323,1.293s0.129,0.195 0.388,0.389c0.13,0.129 0,0.324 0,0.453c-0.259,-0.001 -0.582,-0.712 -0.388,-0.842zm0.194,12.23c0.129,0.064 -0.065,0.258 -0.194,0.389c0,0.129 -0.323,-0.131 -0.712,-0.131c0.194,-0.258 0.582,-0.258 0.906,-0.258zm0.194,3.494c0.13,-0.064 0.324,0.389 0.259,0.389c-0.259,0.322 -0.841,0.258 -1.035,0.129c0.258,-0.129 0.517,-0.324 0.776,-0.518zm-0.582,-1.617l0,0.387c-0.323,-0.062 -0.388,-0.062 -0.776,0c0.064,-0.387 0.647,-0.451 0.776,-0.387z"/>
   <path id="svg_24" d="m82.613001,68.844002l0,1.877l0,-1.877zm0,2.395l0,4.27l0,-4.27zm1.424,0l0.13,0l0,4.27l-0.13,0l0,-4.27z" fill="#0c0e0f"/>
   <path id="svg_25" fill="#b2a43f" d="m71.354001,76.804002l0,-13.007l0.712,0l0,12.293c3.688,0.066 8.671,-0.711 9.253,-0.711c1.229,-0.129 2.006,0.582 2.136,0.777c0.129,-0.195 0.712,-0.906 1.423,-0.777c3.106,0.193 6.341,0.777 9.966,0.777l0,-12.36l0.84,0l0,13.006l-24.33,0l0,0.002z"/>
   <path id="svg_26" d="m82.613001,63.667002l0,4.66l0,-4.66zm1.424,0l0.13,0l0,4.66l-0.13,0l0,-4.66zm9.641,7.572c-0.322,-0.065 -0.775,0 -1.164,-0.065c0.129,-0.259 0.193,-0.453 0.129,-0.647c0,-0.065 -0.129,-0.324 -0.193,-0.518c-0.324,0 -0.646,-0.065 -0.906,0c-0.129,0 -0.129,0.194 -0.129,0.323c-0.064,0.324 0,0.518 0.193,0.841l-0.064,0.065l-1.035,0c-0.517,0 -1.1,0 -1.1,-0.065c0.322,-0.324 0.322,-0.712 0.322,-1.423c0,-0.518 0.066,-1.101 -0.193,-1.229c0,-0.065 -0.129,-0.065 -0.129,-0.065c0,-0.129 0.129,-0.129 0.193,-0.129l0.906,0l0.129,0.129c0,0.065 -0.258,0.065 -0.258,0.194c-0.195,0.194 -0.195,0.583 -0.195,0.971c0,0.583 0,1.229 0.324,1.553l0.129,0c0.518,-0.453 0.777,-1.747 1.1,-2.33c-0.129,-0.194 -0.387,-0.129 -0.387,-0.129c-0.195,0 -0.324,0.129 -0.453,0.129c0,-0.129 0.258,-0.194 0.322,-0.323c0.131,-0.065 0.195,-0.065 0.389,-0.194c0.324,0 0.646,0 0.842,0.323c0.193,0.194 0.258,0.583 0.453,0.906c0.258,0.583 0.453,1.165 0.971,1.618c-0.001,0.065 -0.132,0.065 -0.196,0.065zm-2.071,-1.489c0.129,-0.324 0.195,-0.518 0.324,-0.842c0.129,0 0.389,0.712 0.389,0.842l-0.713,0zm-2.394,-0.517c-0.129,0 -0.193,-0.13 -0.193,-0.194c-0.193,-0.194 -0.193,-0.389 -0.518,-0.518l-0.324,0c0,0.841 -0.193,2.2 0.324,2.653c0,0.194 -0.193,0.065 -0.324,0.065l-0.906,0c-0.064,-0.065 0,-0.194 0.131,-0.324c0.387,-0.582 0.258,-1.488 0.258,-2.265c-0.064,-0.129 -0.193,-0.129 -0.258,-0.129c-0.324,0.129 -0.518,0.388 -0.648,0.712c0,0.129 -0.064,0.129 -0.064,0l0,-0.906l2.524,0l0,0.518c-0.002,0.064 -0.002,0.258 -0.002,0.388z" fill="#0c0e0f"/>
   <path id="svg_27" fill="#0c0e0f" d="m86.301001,68.521002c-0.129,0 -0.129,0.129 -0.129,0.194c-0.322,0.647 -0.193,1.294 -0.193,2.006l0,0.453c0,0.065 -0.129,0 -0.195,0c-0.646,-0.647 -1.035,-1.423 -1.617,-2.135c-0.129,0 -0.129,0.064 -0.129,0.064c0,0.518 0.129,1.1 0.129,1.618c0.064,0.194 0.323,0.324 0.323,0.453c-0.259,0.065 -0.647,0 -0.841,0l-0.194,0c0.583,-0.453 0.388,-1.747 0.388,-2.33c-0.065,-0.129 -0.194,-0.129 -0.259,-0.129c-0.258,0.129 -0.453,0.388 -0.453,0.647l-0.065,0c-0.259,-0.129 -0.259,-0.453 -0.323,-0.518c-0.129,-0.129 -0.194,-0.194 -0.323,-0.194l-0.906,0l0,0.777c0.129,0.129 0.453,0.129 0.518,0c0.129,-0.065 0.194,-0.194 0.389,-0.194l0,0.776c-0.065,0.129 -0.065,-0.065 -0.194,-0.065c-0.065,-0.129 -0.259,-0.194 -0.518,-0.324c0,0.13 -0.194,0 -0.194,0.13l0,0.97c0.129,0.324 0.712,0.194 0.841,0.194c0.194,0 0.388,-0.064 0.453,-0.258c0.13,-0.129 0.13,-0.324 0.324,-0.453l0,-0.064l0,0.776c0,0.13 -0.065,0.259 -0.194,0.259l-2.2,0s-0.129,0 0,0c0.518,-0.324 0.323,-2.135 0.194,-2.459c-0.129,-0.065 -0.194,-0.194 -0.323,-0.259c0,-0.129 0.129,-0.129 0.194,-0.129c0.647,0.129 1.424,0.129 2.006,0c0.13,0.129 0.259,0.129 0.259,0.194c0.065,0.129 0.065,0.194 0.065,0.194c0.129,0 0.194,-0.194 0.324,-0.194c0.194,-0.194 0.388,-0.194 0.583,-0.065c0.841,0.194 1.229,1.359 1.617,1.747l0.129,0c0,-0.388 0,-0.776 -0.129,-1.294c0,-0.194 -0.194,-0.388 -0.388,-0.453c0,-0.129 0.064,-0.129 0.064,-0.129l1.037,0s0.129,0 0,0.129c-0.004,0 -0.004,0 -0.07,0.065zm-6.212,0c-0.194,0.323 -0.194,0.841 -0.194,1.229c0,0.453 -0.064,0.97 0.324,1.294l0,0.129c-0.324,0 -0.776,0 -1.035,0.065c-0.065,-0.065 -0.065,-0.065 -0.065,-0.194c0.065,-0.13 0.324,-0.194 0.324,-0.324c0.064,-0.259 0.064,-1.488 0.064,-1.682c-0.064,-0.194 -0.064,-0.389 -0.323,-0.518c0,0 -0.065,0 -0.065,-0.065c0,0 0,-0.129 0.065,-0.129c0.323,0.129 0.711,0 1.1,0c0.129,0.13 -0.065,0.195 -0.195,0.195zm-2.07,2.653c-0.453,0.065 -1.229,0 -1.618,-0.324c-0.388,-0.388 -0.647,-1.035 -0.388,-1.488c0,-0.453 0.388,-0.841 0.647,-0.906c0.453,-0.129 0.906,-0.259 1.229,-0.129c0.129,0.129 0.324,0.129 0.388,0.129c0.129,0 0.259,-0.129 0.324,-0.129l0.129,0.129c0,0.259 -0.129,0.453 -0.129,0.777c0,0.129 0.129,0.194 0,0.194c-0.194,0 -0.194,-0.194 -0.194,-0.324c-0.323,-0.388 -0.388,-0.582 -0.906,-0.582c-0.323,-0.065 -0.712,0.129 -0.841,0.388c-0.259,0.518 -0.194,1.23 0.129,1.618c0.323,0.323 0.583,0.388 0.971,0.323c0.259,-0.129 0.518,-0.323 0.647,-0.647l0.194,0s0.129,0.129 0.129,0.259c0.001,0.259 -0.452,0.452 -0.711,0.712zm-2.33,-1.812c-0.194,-0.323 -0.323,-0.712 -0.711,-0.841c-0.129,-0.065 -0.324,0 -0.389,0.129c-0.129,0.194 -0.129,0.453 0,0.583c0.389,0.323 1.294,0.582 1.165,1.294c-0.065,0.323 -0.259,0.647 -0.583,0.712c-0.518,0.129 -0.906,-0.065 -1.294,-0.389l-0.129,0a1.004,1.004 0 0 1 -0.389,0.518l-0.129,0c0.129,-0.518 0.259,-0.906 0.453,-1.229c0,0 0,0.064 0.065,0.064c0.129,0.453 0.518,0.711 0.841,0.711c0.389,0.13 0.647,-0.258 0.389,-0.711c-0.194,-0.259 -0.712,-0.388 -1.036,-0.841c-0.065,-0.259 -0.065,-0.518 0.129,-0.712c0.324,-0.518 0.906,-0.453 1.294,-0.194c0.194,0 0.323,-0.129 0.388,-0.129c0.001,0.129 0.001,0.906 -0.064,1.035z"/>
   <path id="svg_28" d="m70.189001,77.903002l0,-14.106l0.971,0l0,13.2l24.719,0l0,-13.2l0.904,0l0,14.106l-26.594,0z" fill="#d06332"/>
   <path id="svg_29" d="m69.996001,72.663002l0,2.91l-2.524,-1.424l2.524,-1.486zm0,-7.572l0,2.912l-2.524,-1.488l2.524,-1.424z" fill="#b2a43f"/>
   <path id="svg_30" fill="#0c0e0f" d="m69.219001,73.567002c0.324,0 0.518,0.324 0.518,0.582c0,0.324 -0.194,0.518 -0.518,0.518s-0.583,-0.193 -0.583,-0.518c0,-0.257 0.259,-0.582 0.583,-0.582z"/>
   <path id="svg_31" fill="#fae935" d="m69.219001,73.632002c0.324,0 0.518,0.26 0.518,0.518c0,0.324 -0.194,0.518 -0.518,0.518s-0.518,-0.193 -0.518,-0.518c0,-0.258 0.194,-0.518 0.518,-0.518z"/>
   <path id="svg_32" fill="#0c0e0f" d="m69.219001,65.997002c0.324,0 0.518,0.194 0.518,0.518s-0.194,0.583 -0.518,0.583s-0.583,-0.259 -0.583,-0.583s0.259,-0.518 0.583,-0.518z"/>
   <path id="svg_33" fill="#fae935" d="m69.219001,65.997002c0.324,0 0.518,0.324 0.518,0.518c0,0.324 -0.194,0.518 -0.518,0.518s-0.518,-0.194 -0.518,-0.518c0,-0.194 0.194,-0.518 0.518,-0.518z"/>
   <path id="svg_34" fill="#0c0e0f" d="m84.360001,91.040002c0,-0.131 -0.129,-0.26 -0.194,-0.324c-0.518,0.324 -1.618,0.324 -1.101,-0.324c-0.129,0 -0.259,-0.064 -0.518,0c-0.582,0 -1.294,0 -1.812,0.389c-0.453,-0.453 -1.035,-0.775 -1.553,-0.971c-0.194,0 -0.259,-0.193 -0.388,-0.193c-0.065,0.518 -0.389,0.582 -0.906,0.518c0,0.193 0.194,0.389 0.129,0.453c0,0 -0.453,-0.064 -1.1,0c-0.324,0 -0.647,-0.064 -0.712,0c0.065,0 0.388,0.193 0.388,0.322c-0.194,0.518 -0.841,0.648 -0.906,0.842c0.065,0.193 0.194,0.193 0.388,0.389c0,0.064 -0.582,0.582 -0.711,0.775c0.129,0.195 0.647,0.195 0.647,0.324c-0.324,0.324 -0.776,0.711 -0.776,1.1l0.453,0c-0.323,0.518 -0.647,1.035 -0.711,1.617c0,0.131 0.194,0.131 0.194,0.131c-0.129,0.258 -0.194,0.453 -0.323,0.646c-0.194,0.129 -0.906,-1.164 -0.906,-2.264c0,-2.072 0.453,-1.619 0.453,-2.072s-0.518,-0.387 -0.712,-0.646c-0.453,-0.711 -1.553,-0.971 -2.071,-0.453c0.324,0.129 0.518,0.129 0.712,0.518c0.13,0.195 -0.064,0.324 -0.064,0.389c-0.194,0 -0.324,0.129 -0.518,0c-0.324,-0.26 -1.229,-0.646 -1.812,0c0.518,0.129 1.035,0.453 1.035,1.035c-0.129,0.582 -0.777,-0.324 -0.777,-0.324c-0.388,0.389 -0.388,1.424 0.324,1.555c0.323,0 0.129,0.387 0.453,0.387c0.194,0.195 0.453,0 0.647,0.064c0.13,0.131 0.259,0.26 0,0.324c-0.194,0.129 -0.388,0.129 -0.582,0.129c-0.065,0.064 0,0.195 0,0.26c0.194,0.453 0.518,0.646 0.906,0.646c0.194,0 0.194,0.193 0.129,0.389c-0.647,0.389 -1.1,0.389 -1.424,1.1c0.194,0 0.583,0 0.583,0.195c0,0.193 -0.194,0.387 -0.388,0.518c0,0.129 -0.13,0.129 -0.13,0.129c0.259,0.064 0.518,0 0.647,0.064c0.194,0.324 -0.712,0.711 -0.647,1.1c0.454,-0.064 0.906,-0.064 1.036,0.324c0,0.322 -0.194,0.582 -0.389,0.906c0.259,0 0.583,-0.324 0.776,0c0.13,0.129 -0.582,0.387 -0.582,0.775c0.323,0 0.388,-0.193 0.776,0c0.194,0.324 -0.712,0.648 -0.776,0.713c0.323,0.518 1.617,0.322 2.135,0c0.194,0.904 1.359,0.904 1.294,1.035c-0.324,0.322 -0.518,0.906 -0.518,1.229c0.194,0.906 -0.389,1.684 -1.424,1.684c-0.518,0 -1.1,-0.066 -1.294,-0.713c-0.13,-0.582 -0.583,-0.582 -1.036,-0.258c-0.582,-0.324 -1.358,0.193 -1.617,0.775c0.453,-0.064 1.617,0.195 0.906,1.035c-0.453,0 -0.971,0.26 -1.101,1.102c2.136,-0.518 1.941,0.904 0.453,1.293c0.841,0.711 1.294,0.518 2.07,0.129c0.13,-0.129 0.194,0.064 0.324,0.064c0.712,0.195 0.582,-0.775 0.905,-0.775c0.065,0 0.194,0 0.194,0.064c0.194,0.389 -0.194,0.646 0,0.842c0.712,0 1.229,-1.035 1.1,-1.617c0.194,-0.195 0.453,-0.455 0.647,-0.455c0.389,-0.062 0.647,0.648 2.33,0.26c0.065,-0.129 -0.259,-0.322 0,-0.453c0.259,-0.064 0.583,-0.193 0.777,-0.258c0.323,-0.324 0.841,-0.195 1.1,-0.518c-0.065,0 -0.194,-0.131 -0.259,-0.195c0.065,-0.129 0.647,-0.129 0.647,-0.322c-0.065,-0.066 -0.194,-0.066 -0.259,-0.195c-0.129,0 1.358,-0.711 1.358,-0.906c0,0 -0.582,-0.582 -0.388,-0.711c0.388,-0.129 0.712,-0.193 0.906,-0.518c0.453,-0.064 2.33,-0.713 3.042,-0.971c0,0.711 0.129,1.1 0.388,1.295l0.129,-2.201c-0.194,0.064 -0.388,0.195 -0.711,0.26l-0.065,0c0.194,-0.26 0.583,-0.584 0.777,-0.971c-0.777,0.387 -1.294,0.906 -2.394,1.424c-0.259,0 -0.259,0.064 -0.259,0c0.129,-0.453 0.323,-0.518 0.518,-1.166c-0.065,0 -0.194,0.129 -0.259,0.129c-1.165,0.842 -1.747,1.619 -2.782,1.295c0.129,0.193 0.453,0.646 1.035,0.842c-0.324,0.258 -1.294,0.193 -1.812,-0.129c0,0.518 0.777,0.84 1.036,0.904c-0.518,0.324 -1.553,0 -2.071,-0.193l0,0.129c0.388,0.582 1.553,0.713 2.135,0.713c-0.906,0.451 -1.747,0.582 -2.588,0.064c-0.129,0.322 0.777,0.906 1.1,1.035c0,0.193 -1.229,0.064 -1.812,-0.518c-0.194,0.322 0.712,0.906 0.906,0.971c-0.518,0.453 -1.876,-0.195 -1.617,-0.064c-0.129,0 -0.129,-0.131 -0.129,0c0.129,0.387 0.518,0.582 0.906,0.711c-0.712,0.518 -1.294,-0.129 -1.618,-0.324c-0.194,-0.064 -0.906,0.713 -0.971,0.713l0,0.711c-0.129,0.195 -0.324,0.713 -0.518,0.713c-0.129,-0.131 0.065,-0.582 -0.193,-0.777c-0.842,-0.322 -0.712,0.582 -1.101,0.777c-0.453,0.322 -1.035,-0.518 -1.035,-0.582c0,-0.131 0.129,-0.453 0.388,-0.195c0.324,0 0.324,-0.258 0.324,-0.258c0,-0.26 -0.13,-0.52 -0.518,-0.52c-0.065,0.131 -0.065,0.455 -0.324,0.324c-0.388,-0.324 -0.388,-1.1 -0.193,-1.1c0.323,-0.129 0.323,0.324 0.711,0.193c0.194,-0.193 0.194,-0.711 0,-0.775c-0.259,-0.129 -0.518,0.193 -0.711,0c0.129,-0.518 0.453,-0.906 0.647,-0.906c0.388,0 0.258,0.582 0.776,0.906c0.711,0.389 1.618,0.389 2.006,0.193c1.812,-0.842 1.036,-2.135 1.747,-2.459c1.229,-0.582 0.712,-1.164 1.1,-1.488c0.129,0.131 0.129,0.713 0.518,0.713c0.065,-0.518 0.194,-1.035 0.712,-0.777c0.194,0.26 0.518,0.582 0.777,0.777l0,-1.035c0.518,0.518 1.293,0.453 1.293,0.258c-0.194,-0.129 -0.582,-0.646 -0.453,-0.775c0.388,0.258 1.165,0 1.1,-0.195c-0.129,-0.064 -0.194,-0.193 -0.194,-0.258c0.065,-0.195 0.583,-0.195 0.712,-0.195c0,-0.322 -0.453,-0.906 0.064,-1.424c0.194,0.195 0.324,0.389 0.712,0.518l0.129,-0.129c-0.129,-0.322 -0.194,-0.711 0,-0.906c0.906,0 1.489,0 2.2,-0.193l0,-3.947c-0.129,0 -0.323,-0.064 -0.388,-0.518c-0.129,-0.389 -0.518,-0.646 -1.035,-0.777c0.194,-0.193 0.129,-0.518 0.129,-0.646c0.259,-0.064 0.583,-0.064 0.777,0c0.324,0.324 0.129,0.842 0.518,1.617l0,-2.204c0,-0.064 -0.129,-0.064 -0.194,-0.193c0.064,-0.131 0.194,-0.195 0.194,-0.324l0,-1.165l0.002,0zm0,14.17c-0.194,-0.064 -0.518,-0.193 -0.711,-0.258c-0.324,-0.195 -0.389,-0.713 -0.906,-0.713c-0.129,0.064 -0.323,0.064 -0.388,0.195c-0.647,-0.389 -1.618,0.193 -1.553,1.035c0.453,-0.26 0.841,-0.26 1.035,0.387c-0.129,0.064 -0.129,0.195 -0.194,0.195c-0.906,-0.518 -1.553,0.906 -1.359,1.1c0.324,-0.193 0.841,-0.324 1.165,-0.129c0.194,0.258 0.194,0.453 0.194,0.646c-0.583,0.195 -0.906,0.389 -1.1,1.424c0,0 0.065,0 0.065,0.064c0.518,-0.453 1.035,-0.453 1.618,-0.389c0.194,0.324 0.518,0.389 0.906,0.195c0.453,-0.26 0.647,-0.777 1.036,-1.037c0.064,0 0.194,-0.062 0.194,0.131c0.129,0.324 -0.194,0.646 -0.518,0.842c0,0.064 0.194,0.193 0.518,0.193l0,-1.553c-0.518,0 -0.906,0.324 -1.229,0.842c-0.194,0.064 -0.388,0.193 -0.583,0.193c-0.323,-0.129 -0.712,-0.906 -0.194,-1.1c0.065,-0.131 0.194,0.064 0.388,0a0.374,0.374 0 0 0 -0.194,-0.713c-0.194,0 -0.388,0.518 -0.582,0.195c-0.13,-0.324 0,-1.102 0.453,-1.037c0.129,0.131 0.194,0.324 0.323,0.324c0.518,0 0.388,-0.518 0.323,-0.711c-0.259,-0.064 -0.646,0.129 -0.711,-0.064c-0.129,-0.324 0.194,-0.842 0.453,-0.842c0.453,0 0.324,0.518 0.776,0.582c0.194,0.129 0.583,0.129 0.777,0.324l0,-0.321l-0.002,0zm-13.006,-11.389c0.259,-0.193 0.518,0.324 0.583,-0.064c0.194,-0.711 -0.518,-0.453 -0.518,-0.711a0.974,0.974 0 0 1 0.906,-0.648c0.323,0 -0.194,0.648 0.518,0.648c0.712,-0.518 -0.129,-0.648 -0.129,-0.713c0,-0.389 1.036,-0.322 1.165,-0.129c0.065,0.129 0.065,0.193 0,0.324c-0.129,0.193 -0.323,0.518 -0.388,0.775c0,1.035 -0.324,2.459 0.064,3.236c0.194,0.322 0.518,0.322 0.712,0.518c0.323,0.193 0.971,1.746 0.971,1.811c-0.259,0.324 -0.453,0.518 -0.647,0.713c0,0.129 0.194,0.193 0.389,0.193c0.194,0 -0.518,0.842 -0.906,0.906c0,0 -0.129,0 0,0.129c0.194,0.324 0.583,0.195 0.971,0.324c-0.194,0.453 -0.388,0.453 -0.582,0.971c0.129,0.193 1.1,-0.129 1.294,0c0,0.906 -1.618,0.906 -1.812,-0.129l-0.065,0c-0.905,0.646 -1.553,0.453 -1.617,0.453c0.97,-0.52 0.776,-0.713 1.294,-1.555c-0.194,-0.193 -0.841,0.518 -1.229,0.324c0.194,-0.064 0.323,-0.324 0.518,-0.711c0.194,-0.518 0.647,-0.713 0.647,-0.713c-0.259,-0.193 -1.359,0.646 -1.359,0.646c0.324,-1.035 0.842,-1.164 0.906,-1.746l-0.064,0c-0.712,0.711 -1.229,0.775 -1.748,0.775c0.129,-0.387 1.748,-0.646 1.748,-1.553c0,-0.193 -0.259,0.195 -0.518,0.26c-0.518,0.129 -0.842,0.193 -0.906,0.129c0.323,-0.518 0.582,-0.518 0.97,-0.906l0,-0.129a4.495,4.495 0 0 1 -1.294,0.193l0.129,-0.064c0.518,-0.389 1.165,-0.322 1.165,-0.906a0.592,0.592 0 0 0 -0.258,-0.518c-0.324,0 -0.906,-0.129 -0.906,-0.387c0.583,0.064 1.101,-0.195 0.906,-0.713c-0.194,-0.387 -0.647,-0.322 -1.036,-0.193c-0.392,-0.322 -0.003,-0.84 0.126,-0.84zm-1.035,-0.388s0.129,0.195 0.388,0.389c0.13,0.129 0,0.324 0,0.453c-0.259,-0.001 -0.582,-0.712 -0.388,-0.842zm0.323,-1.293c0.324,-0.129 0.776,0 0.906,0.193c0,0.064 -0.194,0.389 -0.324,0.324c-0.258,-0.517 -0.776,-0.453 -0.582,-0.517zm2.588,-0.389l-0.065,0c-0.193,0 -0.323,0.193 -0.518,0c-0.129,-0.193 -0.193,-0.324 -0.323,-0.453c0.324,-0.065 0.648,0.129 0.906,0.453zm-3.105,15.789l0,0.387c-0.323,-0.062 -0.388,-0.062 -0.776,0c0.064,-0.387 0.647,-0.451 0.776,-0.387zm0.388,-1.877c0.129,0.064 -0.065,0.258 -0.194,0.389c0,0.129 -0.323,-0.131 -0.712,-0.131c0.194,-0.258 0.582,-0.258 0.906,-0.258zm0.194,3.494c0.13,-0.064 0.324,0.389 0.259,0.389c-0.259,0.322 -0.841,0.258 -1.035,0.129c0.258,-0.129 0.517,-0.324 0.776,-0.518zm6.212,-11c0,0.453 0,1.1 -0.453,1.746c-0.389,0.584 -1.424,0.713 -1.812,0.777c1.1,-0.71 1.553,-1.617 2.265,-2.523zm0.582,-0.713a0.564,0.564 0 0 1 0.518,-0.387c0,0.322 0.259,0.646 0.194,0.84c-0.324,0.453 -0.712,1.812 -0.712,2.395c-0.129,0.582 -1.229,1.684 -2.459,1.488c2.977,-1.81 1.618,-3.17 2.459,-4.336zm0.065,-1.875c0.194,0.193 0.324,0.518 0.518,0.711c-0.065,0.064 -0.065,0.193 -0.065,0.26c0,0.193 -0.259,0.129 -0.323,0.193c-1.101,0.518 -0.777,1.877 -2.33,2.652c1.035,-1.034 0.841,-2.911 2.2,-3.816zm-0.065,-1.941c-0.129,0.453 -0.129,0.453 -0.323,0.711c-0.777,0.324 -0.583,1.1 -1.618,1.295c-0.064,0 -0.194,0.129 -0.194,0c0.13,-1.1 1.229,-1.813 2.135,-2.006zm-0.323,1.099c0.129,0.193 0.194,0.453 0.323,0.646c-0.906,0.582 -1.035,1.488 -1.941,1.295c0,0 -0.194,0 -0.064,-0.129c1.164,-0.97 0.97,-1.487 1.682,-1.812zm0.129,-1.812c0.065,0 0.194,0.195 0.259,0.195c0.13,0.129 0,0.193 0,0.193c-0.259,0.324 -0.776,0.26 -1.553,0.453c0,0.064 -0.129,0.064 -0.129,0c0.323,-0.452 1.1,-0.71 1.423,-0.841zm-1.229,-0.258c0.324,-0.26 0.712,-0.324 1.101,-0.453l0,0.453c-0.389,0 -0.712,0.064 -1.165,0.064c-0.26,0.001 0.064,-0.064 0.064,-0.064zm1.423,-1.099c-0.194,0.064 -0.194,0.258 -0.323,0.387c-0.259,0 -0.712,-0.129 -0.906,-0.322c0.712,-0.583 1.294,-0.196 1.229,-0.065zm0.906,-0.131c-0.129,0.131 -0.194,-0.193 -0.711,0c0,0 -0.194,0 -0.324,-0.193c-0.065,-0.193 -0.194,-0.129 -0.453,-0.453c0.647,-0.001 1.165,-0.001 1.488,0.646zm-0.906,9.447c0,0.324 0.064,0.713 0.194,1.102c-0.194,0.129 -0.324,0.129 -0.518,0.518c-0.065,0.129 -0.389,-0.777 -0.194,-1.166c0.195,-0.13 0.324,-0.323 0.518,-0.454zm0.259,-9.123c0.324,-0.129 0.647,-0.129 0.841,0.26c0.324,0 0.841,0.129 1.1,0.193c0.194,0.129 0.323,0.324 0.323,0.518c-0.129,0.324 -0.129,0.389 -0.194,0.582c-0.324,-0.064 -1.229,-0.971 -1.229,-0.971c-0.065,0 -0.065,0.389 -0.712,0.389c-0.323,-0.065 -0.388,-0.711 -0.129,-0.971zm0.259,1.682c0.065,-0.193 0,-0.387 0.194,-0.387c0.064,-0.131 0.194,-0.195 0.323,-0.324c0.065,0 0.194,0.193 0.259,0.324c-0.065,0.258 -0.259,0.518 -0.259,0.775c0.065,0 0.065,0.129 0.194,0.129c0.194,-0.129 0.453,-0.322 0.453,-0.518l0.129,0c0.129,0 0.129,0 0.194,0.131c0,0.064 -0.064,0.193 -0.194,0.387c-0.129,0.195 -0.388,0.324 -0.518,0.389c-0.065,0.131 -0.259,0 -0.194,0.195c0,0.129 0.129,0.322 0.194,0.387c0.129,0.131 0.194,-0.064 0.388,0c-0.065,0.131 -0.065,0.26 -0.194,0.324c-0.064,0 -0.259,0 -0.388,-0.064c-0.065,0 -0.194,-0.129 -0.194,-0.26c0,-0.193 0,-0.258 -0.129,-0.387c-0.064,0 -0.194,-0.064 -0.259,0c0,0 -0.129,0.129 -0.129,0.193c0,0.129 0.129,0.129 0.194,0.193c0.194,0.131 0.194,0.26 0.194,0.324c0.129,0.129 0.453,0.193 0.259,0.324c0,0.064 -0.129,0.193 -0.129,0.258c-0.129,0 -0.129,-0.064 -0.194,-0.193c-0.194,-0.26 -0.453,-0.582 -0.647,-0.971c0.13,-0.388 0.324,-0.841 0.453,-1.229zm-0.259,6.537c0,-0.389 0.259,-1.488 0.647,-2.006l0,0.129c0.324,0 0.324,-0.129 0.583,-0.324c0,1.812 -0.971,1.488 -0.453,5.047c-0.777,-0.583 -0.841,-2.006 -0.777,-2.846zm0.518,-9.578c0.712,0.324 1.229,0.906 1.165,1.359l-0.647,0c-0.194,-0.453 -0.518,-0.842 -0.518,-1.359zm0.518,5.242c0,-0.064 0.129,0 0.129,0c-0.129,0.453 -0.194,0.84 -0.194,1.1c0,0.129 0.065,0.129 0.065,0.129c0.194,-0.322 0.518,-1.424 0.647,-1.1c0.259,0.711 -0.647,1.812 -0.841,1.682c-0.065,-0.001 -0.324,-1.165 0.194,-1.811zm0.388,1.941c0.129,-0.131 0.323,-0.389 0.453,-0.518c0.583,1.424 -0.841,3.363 0.388,4.658c-0.582,0.064 -0.841,-0.711 -0.906,-0.518c0,0.389 0.194,0.777 0.324,1.23c-0.712,-0.131 -0.841,-1.102 -0.712,-2.201c0.065,-1.034 0.582,-1.616 0.453,-2.651zm0.518,-3.947l0.129,0c0.064,0.129 -0.324,0.518 0,1.035c0.064,0.193 0.194,0.193 0,0.389c0,0 -0.129,0.129 -0.129,0l-0.194,-0.389c-0.194,-0.129 -0.388,0.064 -0.711,0.064l0,-0.193c0.516,-0.064 0.71,-0.453 0.905,-0.906zm-0.518,-3.43c0.647,0.324 1.035,0.582 1.229,1.035c-0.129,0.324 -0.194,0.518 -0.194,0.906c-0.13,0 -0.13,-0.195 -0.518,-0.324c-0.194,-0.582 -0.258,-1.035 -0.517,-1.617zm0.259,4.854c0,-0.195 0.064,0.193 0.259,0.193c0.194,0.129 0.194,-0.064 0.518,-0.193c0,0 0,-0.131 -0.13,-0.195c-0.194,-0.322 -0.194,-0.711 0,-1.1l0.194,0c0.259,0.193 -0.064,0.582 0.129,0.713c0.129,0.064 0.194,0.193 0.324,0.193c0.323,-0.129 0.064,-0.518 0.194,-0.582c0.194,-0.26 0.388,-0.453 0.583,-0.453c0,0.129 0,0.193 0.129,0.322c0,0.131 0.324,0.195 0.065,0.324c-0.194,0.26 -0.259,0.646 -0.389,0.971c-0.064,0.389 -0.906,0.711 -1.617,1.1c-0.065,-0.064 0,-0.258 -0.065,-0.582c0.194,-0.129 0.388,0 0.583,-0.129c0.064,-0.064 0.388,0 0.518,-0.195c0,-0.064 -0.129,-0.258 -0.324,-0.193c0,0 -0.129,0 -0.129,0.129c-0.064,0.195 -0.776,0.064 -0.97,0c-0.002,-0.13 0.128,-0.194 0.128,-0.323zm0.388,1.617c0.194,0 0.388,-0.129 0.582,-0.195c0.324,0.389 0.324,1.619 0.324,2.008c-0.129,0.904 -0.194,1.293 0,2.393c-0.518,-0.387 -0.647,-0.646 -0.841,-1.164c-0.064,-0.906 0.324,-1.812 -0.064,-2.652c-0.001,-0.068 -0.195,-0.326 -0.001,-0.39zm0.97,-4.012c0.453,-0.129 0.841,0.193 0.906,0.582c0,0 0.129,0 0.259,-0.129c0.194,0 0.388,0 0.582,0.193c0.065,0.129 0.065,0.26 0,0.324c-0.129,0.193 -0.518,0.518 -0.841,0.193c0,-0.193 0.129,-0.389 -0.065,-0.389c-0.324,-0.129 -1.1,0.195 -1.553,0c0,-0.321 0.324,-0.774 0.712,-0.774zm1.035,-2.07c0.194,0 0.389,0 0.583,0.129c-0.065,0 -0.065,0.064 -0.194,0.064c-0.518,0.453 -0.906,0.971 -1.294,1.424l-0.518,-0.064c0.129,-0.518 0.388,-1.424 1.423,-1.553zm-0.323,15.658c0.129,0.129 0,0 0,0.518l-0.194,0c-0.259,-0.129 -0.518,-0.129 -0.711,0c0.129,-0.389 0.646,-0.518 0.905,-0.518zm-0.259,-10.158c0.259,0.453 0.259,1.1 0.388,1.682c0.194,0.713 0,1.295 -0.129,1.941c-0.712,-0.646 -0.388,-1.617 -0.583,-2.459c-0.129,-0.26 -0.194,-0.582 -0.323,-0.906c-0.065,0 0.453,-0.194 0.647,-0.258zm0.454,11.971c0,0.129 0,0.193 0.129,0.389l-0.129,0c-0.453,0 -0.583,0.129 -0.906,0.258c-0.001,-0.323 0.646,-0.841 0.906,-0.647zm0.452,-3.301c-0.129,0.195 -0.194,0.389 -0.194,0.453c0,0.129 -0.13,0 -0.13,0c-0.194,-0.064 -0.388,-0.193 -0.582,-0.193c0.194,-0.26 0.712,-0.518 0.906,-0.26zm0.453,-13.524c0.518,-0.129 1.036,0.064 1.424,0l0.129,0c-0.194,0.324 -0.583,0.193 -1.036,0.324c-0.776,0.064 -0.971,0.258 -1.488,0.84c-0.194,0 -0.194,-0.064 -0.324,-0.064c0.325,-0.775 0.648,-0.906 1.295,-1.1zm-1.1,4.53c0.129,-0.129 0.194,-0.389 0.194,-0.389c0.453,0.453 0.712,1.166 0.841,2.006c0.065,0.906 0.518,1.295 0.389,1.295c-0.324,-0.064 -0.583,-0.324 -0.777,-0.582c-0.194,-0.389 -0.194,-1.035 -0.712,-2.266c0,-0.064 0,0 0.065,-0.064zm0.195,-3.235c1.035,-0.971 1.553,-0.777 2.459,-0.971l0.064,0.064c-0.064,0.322 -0.259,0.711 -0.582,0.711c-0.518,0.064 -0.906,0 -1.424,0.389c-0.065,0 -0.065,-0.064 -0.259,0c0,0.001 -0.323,-0.193 -0.258,-0.193zm0.323,2.135c0.129,-0.129 0.194,0 0.324,0.064c0.971,0.842 0.388,2.523 1.488,3.559c0.129,0.064 -0.583,-0.129 -0.777,-0.322c-0.518,-0.906 -0.323,-1.684 -1.1,-2.783c-0.13,-0.129 0.065,-0.518 0.065,-0.518zm0.776,-0.518c0.324,0.129 0.776,0.324 0.842,0.711c0.388,1.1 0.194,1.684 0.582,3.236c-0.647,0 -0.776,-1.748 -1.1,-2.523c-0.194,-0.389 -0.518,-0.842 -0.906,-1.1c0.518,-0.195 0.582,-0.324 0.582,-0.324zm1.424,-1.23c0,0.131 0,0.131 -0.064,0.131c-0.518,0.193 -0.712,-0.131 -1.101,0.064c-0.129,0.129 -0.129,-0.064 -0.323,-0.064c-0.129,-0.195 -0.194,-0.195 -0.194,-0.195c0.582,-0.323 1.034,-0.454 1.682,0.064z"/>
   <path id="svg_35" fill="#0c0e0f" d="m84.360001,91.040002c0.194,0.518 0.194,0.775 0,1.164l0,-1.164zm0,1.682c0.194,0.324 0.388,0.582 0.518,0.518c0.712,-0.906 2.2,-1.229 2.007,-1.812c-0.195,-0.646 -0.713,-0.646 -1.23,-0.646c0.129,-0.389 0.713,-0.389 1.424,-0.389c0,-0.258 -0.064,-0.518 0,-0.711c1.1,0.193 1.553,1.424 2.199,1.553c0.648,0.064 1.359,-0.324 1.877,-0.711l0.064,0c-0.064,1.229 1.23,0.258 1.619,0.518c0.064,1.1 -1.812,1.357 -2.006,1.875c-0.195,0.518 0.193,0.648 0.322,0.842c-0.129,0.064 -0.84,0.064 -0.775,0.389c0.322,0.389 1.164,0.193 1.229,-0.064c0.324,-0.648 -0.193,-0.842 -0.193,-0.971c0.129,-0.064 0.389,0.129 0.646,-0.064c0.064,-0.195 -0.129,-0.324 -0.129,-0.389c0.389,0.064 0.775,0.389 1.488,0.193c0.258,-0.129 0,-0.322 0.129,-0.518c0.389,0.064 0.777,0.518 1.1,0.713c0.324,-0.131 0.195,-0.518 0.131,-1.035c0.387,-0.066 0.775,1.1 1.293,1.229c0.193,0.064 0.389,-0.193 0.389,-0.389c0.129,0 0.129,0.064 0.129,0.195c0.713,2.523 1.488,0.064 1.877,0.518c0.129,0 0,0.064 0,0.064c-0.193,0.193 -0.26,0.646 -0.193,0.906c0.451,1.553 -1.166,1.939 -1.102,1.939c0.131,3.43 -3.43,3.496 -5.24,3.107c0.518,1.1 1.811,1.229 1.941,2.199c0.064,0.324 0.193,1.23 0.453,1.553c0.518,0.324 1.422,-0.193 1.875,-0.518c0.777,0.131 0.777,0.582 0.906,0.713c0.777,0.129 1.359,-0.389 2.07,-0.582c0.195,0.193 -0.387,0.904 -0.064,0.775c0.064,0 0.064,-0.064 0.195,0c0.064,0.389 -0.195,0.777 -0.131,1.035c0.131,0.064 0.195,0.064 0.453,0.195c-0.129,0.193 -0.322,0.064 -0.518,0.518c0.064,0.064 0.518,0.064 0.713,0.064c-0.195,0.387 -0.906,0.84 -1.035,1.035c0.129,0.064 0.387,0.064 0.518,0.064c0,0.324 -0.584,0.389 -0.713,0.646c0.129,0.064 0.195,0.064 0.324,0.195c-0.195,0.258 -1.035,0.582 -0.842,0.711c0.129,0.064 0.324,0.195 0.518,0.26c-0.646,0.518 -1.035,0.646 -1.746,0.646c0,0.258 0,0.453 -0.26,0.711c-0.129,0.195 -0.518,0.389 -0.842,0.389c0.195,-0.646 0,-1.229 -0.518,-1.229c0,0.129 -0.064,0.129 -0.064,0.193c0.195,0.646 -0.129,1.295 -1.035,1.229c-0.389,0.52 -1.617,0.52 -2.199,-0.193l0,-0.193c0.518,0 0.775,0 1.229,-0.195c0,-0.258 0,-0.322 -0.129,-0.453c-0.518,-0.064 -1.1,0.195 -1.617,0.453c0,0.064 0,0 0,0c-0.064,-0.711 0.389,-1.617 1.035,-1.617c0.193,-0.646 0.258,-0.453 0.258,-0.646c-0.258,-0.195 -0.775,-0.26 -1.164,-0.26c-0.129,0 -0.193,0.064 -0.324,0c0.518,-1.035 1.295,-1.1 1.941,-0.84c0.195,-0.195 0.518,-0.389 0.713,-0.26c0.389,0 0.453,0.646 0.711,0.842c0.389,0.129 0.842,-0.453 0.842,-0.842c0,-0.842 -1.359,-0.971 -2.07,-0.842c-0.648,0.131 -1.23,0 -1.812,-0.387c-0.389,-0.324 -0.842,-0.648 -1.229,-1.035c-0.131,-0.066 -0.131,0 -0.131,0.129c-0.064,0.258 -0.258,0.711 0,1.1c0.324,0.193 0.971,0.389 1.035,0.906c-0.064,0.193 -0.064,0.518 -0.322,0.711c-0.26,0.195 -0.713,0.389 -0.713,0.777c-0.064,0.518 0,0.646 0.453,1.164c-0.453,0.195 -1.035,0 -1.359,-0.129c-0.064,0 -0.387,0.582 -0.451,0.775c-0.324,0.131 -0.518,-0.646 -0.648,-0.582c-0.064,0.131 -0.389,0.518 -0.389,0.713c-0.193,0.064 -0.387,-0.713 -0.518,-0.777c-0.193,0.195 -0.387,0.453 -0.387,0.777c-0.195,-0.131 -0.324,-0.324 -0.518,-0.518c-0.26,0.322 -0.713,0.518 -1.101,0.387c-0.129,-0.064 0.194,-0.387 0.064,-0.451c0,-0.131 -0.064,0 -0.064,0c-0.129,0.193 -0.518,0.193 -0.906,0.193l0,-1.553c0.388,-0.064 0.776,0.129 1.229,0.387c0.193,0.26 0.193,0.648 0.064,0.973c0,0.064 -0.194,0.193 -0.064,0.258c0.906,-0.258 0.582,-1.23 0.777,-1.424c0.129,-0.064 0.129,0 0.129,0c0,0.453 -0.129,0.971 0.193,1.23c0.195,-0.582 0.518,-1.23 0.906,-1.684c0.064,0 0.064,0 0.064,0.064c0,-0.064 -0.258,1.037 0.129,1.359c0.195,-0.453 0.52,-1.359 1.037,-1.682c-0.195,0.453 -0.453,1.164 -0.131,1.746c0.389,-0.582 0.131,-1.424 0.906,-2.006l0,0.064c-0.324,0.713 -0.582,1.555 0.518,1.748l0,-0.129c-0.842,-0.777 0.064,-1.684 0.389,-1.812c0.129,-0.064 0.129,-0.389 0.129,-0.453c-0.129,-0.26 -0.322,-0.453 -0.453,-0.518c-0.387,-0.129 -0.646,-0.324 -0.775,-0.711c-0.131,-0.518 0.129,-1.102 0.193,-1.555c0.129,-0.193 -0.518,-0.775 -0.971,-1.293c-0.258,0.711 -1.164,0.711 -1.359,0c-0.904,0.518 -0.775,0.711 -1.422,1.293c0,0.131 -0.26,0 -0.26,-0.064c0.193,-0.387 0.389,-0.84 0.518,-1.229c0.064,-0.195 -0.258,0.129 -0.647,0.324c-0.324,0.193 -0.776,0.322 -0.776,0.387c-0.194,0.842 0,1.295 0.97,1.488c0.842,0.131 1.617,-0.193 2.201,0.195c1.035,0.711 0.322,1.746 -1.102,1.941c-0.646,0.129 -2.005,0.193 -2.199,-0.713c0,-0.064 -0.065,-0.193 -0.194,-0.193l0,-0.324c0.129,0.129 0.194,0.129 0.194,0.26c0.323,0.451 0.582,0.451 1.229,0.582c0.389,0 0.777,0 1.102,-0.131c0.711,-0.193 0.711,-1.1 0.193,-1.1c-0.711,-0.064 -1.295,0.131 -1.941,-0.064c-0.388,-0.129 -0.647,-0.258 -0.906,-0.322l0.129,-2.201c1.229,-0.646 2.136,-1.035 3.429,-1.746c0.066,0 0.324,-0.066 0.52,0c1.488,2.006 2.199,3.623 4.916,4.012c1.037,0.258 2.201,-0.195 2.654,0.971c0.322,0.711 -0.324,1.875 -1.23,1.875c-0.193,0.131 -0.387,-0.193 -0.518,-0.387c-0.064,-0.195 -0.064,-0.518 -0.389,-0.584c-0.322,0.066 -0.518,0.389 -0.582,0.648c-0.258,0.453 0.389,0.322 0.518,0.518c0.389,0.518 -0.322,0.906 -0.646,0.518c-0.389,-0.193 -0.389,0.842 -0.129,0.906c0.322,0.129 0.518,-0.195 0.646,-0.26c0.582,-0.258 0.906,0.777 0.129,0.582c-0.258,0.064 -0.129,0.389 0,0.582c0.195,0.324 0.906,0.324 1.102,-0.064c0.064,-0.258 -0.131,-0.453 -0.131,-0.646c0.389,-0.971 1.941,-0.389 2.459,-0.258c0.064,0 0.582,-0.131 0.842,-0.324c-0.453,-0.129 -1.166,-0.518 -1.295,-0.711c0.906,0.062 1.23,0 1.553,-0.195c-0.451,0 -0.904,-0.129 -1.357,-0.389c0.711,0 1.229,0.064 1.875,-0.453c-0.646,0 -1.617,0.131 -1.875,-0.387c0.322,0 0.84,0.193 1.229,0.129c0.324,-0.129 1.035,-0.389 0.842,-0.648c-0.518,0.131 -0.646,-0.193 -1.812,0c0,-0.258 1.488,-0.258 1.359,-0.451c-0.26,0 -1.1,-0.131 -1.359,-0.26l0,-0.064c0.777,0 1.617,-0.324 1.812,-0.906c-0.453,0.195 -1.748,0.518 -1.941,0.26c0.971,-0.064 1.941,-1.166 1.746,-1.166c-0.518,0.324 -1.164,0.389 -1.746,0.389c-0.129,0 -0.129,0 -0.195,-0.064c0,-0.129 0,-0.26 -0.129,-0.26c-0.453,-0.387 -1.424,1.037 -2.588,0.26c-0.518,-0.518 -0.518,-1.164 -0.842,-1.748a4.285,4.285 0 0 0 -0.971,-1.229c-0.646,-0.389 -1.1,-0.971 -1.553,-1.617c-0.064,-0.389 -0.904,-1.295 -1.488,-1.166c-0.387,0.066 -0.711,0.066 -1.1,0.195c-1.553,0.389 -2.459,0.906 -3.753,1.1l0,-3.947c0.129,0 0.129,-0.064 0.129,-0.064c0,-0.129 -0.129,-0.129 -0.129,-0.26l0,-2.198l-0.002,0zm0,8.8s0.129,0 0.129,-0.131c0.001,0.001 -0.129,0.001 -0.129,0.131zm0.518,6.405c0.065,0 0.259,0.131 0.388,0.26c0.324,0.195 -0.582,0.777 -0.906,0.582c0.195,-0.194 0.389,-0.518 0.518,-0.842zm0.582,-14.817c0.647,-0.582 1.747,-0.906 1.747,-1.488c0.064,-0.713 -1.035,-0.906 -0.906,-0.906c0.26,-0.193 1.102,0.064 1.295,0.518c0,0.064 0.064,-0.646 -0.129,-1.035c1.035,0.518 1.035,1.359 0.711,1.941c0,0.064 0.131,0.193 0.131,0.064c0.387,-0.777 1.422,-0.646 2.07,-0.971c0.129,0 0.129,0.064 0.129,0.064c-0.129,0.129 -0.193,0.324 -0.324,0.453c0,0.064 0.131,0.064 0.131,0.064c1.293,0 2.135,-0.518 2.135,-0.518c0,0.129 -0.195,0.646 -2.135,1.1c-0.389,0.648 0.387,1.166 0.193,1.23c-0.518,0 -0.777,-0.195 -0.711,-0.713c-0.066,-0.064 -0.066,-0.064 -0.195,-0.064c-0.518,0.713 0.518,1.684 1.1,1.877c0,0.129 -0.064,0.129 -0.322,0.129c-2.006,-0.387 -1.553,-2.135 -3.365,-1.941c-0.518,0.131 -1.424,0.713 -1.553,1.424c-0.13,0.582 0.194,1.295 0.84,1.424c1.295,0.389 2.395,-0.193 3.689,-0.711c0.518,0.129 1.164,0.129 1.424,-0.195c0.129,0 -0.389,-0.193 -0.518,-0.322l0.129,0c0.711,-0.064 1.1,-0.389 1.035,-1.23c0.389,0 0.842,0.777 1.1,0.842c0.195,0.129 -0.322,-0.842 -0.453,-1.035c0.648,0.129 1.166,0.322 1.424,1.035c0.195,0 -0.258,-1.295 -0.064,-1.23c0.971,0.518 0.906,1.424 0.971,1.23c0.324,-0.324 0.129,-0.713 0.324,-1.035c0.518,0.322 1.035,0.711 0.84,1.359l0,0.064c0.195,-0.064 0.389,-0.453 0.453,-0.713c0.324,0.324 0.518,0.842 0.324,1.359l-0.129,0.064c0.129,0.129 0.258,0.129 0.322,0c0.518,-0.193 0.324,-0.775 0.713,-0.971c0.322,0.971 0.064,1.682 -1.102,2.006c0,0.453 -0.129,0.971 -0.193,1.488c-0.324,0.713 -0.906,1.1 -1.553,1.424c-0.971,0.258 -3.105,0.258 -3.883,-0.324c-0.129,-0.064 -0.258,-0.258 -0.322,-0.387c1.293,0.387 4.723,0.582 5.369,-1.23c0.453,-1.424 -0.84,-2.199 -1.746,-2.33c-2.135,-0.193 -3.947,0.713 -6.342,1.424c-1.359,0.389 -3.365,0.324 -3.429,-1.424c-0.001,-0.646 0.193,-1.357 0.775,-1.81zm6.989,15.336a0.442,0.442 0 0 0 0.064,0.518c0.129,0.193 -0.453,0.129 -0.777,0.322c0,-0.193 0.325,-0.84 0.713,-0.84zm0.453,-1.812a6.804,6.804 0 0 0 -0.195,0.518c-0.258,-0.193 -0.453,-0.193 -0.971,-0.129c0.067,-0.26 0.778,-0.778 1.166,-0.389zm0.323,3.365c0.131,0.064 0.195,0.193 0.324,0.258c-0.129,0.195 -1.035,0.324 -1.1,-0.064c0.258,-0.001 0.582,-0.001 0.776,-0.194zm2.523,-1.1c-0.064,-0.131 0.518,0 0.648,0.064c0.064,0.129 0.193,0.518 -0.195,0.711c0,-0.388 0,-0.517 -0.453,-0.775zm-11.193,-12.943c0,-0.129 0,-0.129 0.129,-0.129c0.453,1.164 1.683,1.23 2.783,1.035c2.07,-0.322 4.658,-1.488 6.406,-1.488c0.582,0 2.006,0.26 2.006,1.166c0,0.646 -0.195,1.035 -0.648,1.357c-0.582,0.389 -2.07,0.584 -2.717,0.584c-0.389,0 -1.877,-0.131 -2.33,-0.713c-0.258,-0.193 -0.646,-0.324 -1.1,-0.324c-1.424,0 -2.977,0.842 -4.206,0.842c-0.323,0 -0.388,-1.812 -0.323,-2.33zm3.105,-2.523c0.518,0.389 0.971,1.102 1.748,1.488c0,0.131 -1.553,0.648 -2.137,0.648c-1.1,0 -1.422,-0.518 -1.422,-1.035c0.001,-0.584 1.036,-1.488 1.811,-1.101z"/>
   <path id="svg_36" fill="#fae935" d="m66.372001,96.669002l2.718,-1.1l-1.1,2.781l2.847,1.1l-2.847,1.166l1.1,2.781l-2.718,-1.1l-1.1,2.719l-1.229,-2.719l-2.782,1.1l1.165,-2.781l-2.523,-1.035l0,-0.195l2.523,-1.035l-1.1,-2.781l2.717,1.1l1.229,-2.719l1.1,2.718zm-0.195,0.389l2.524,-0.971l-1.036,2.523l2.523,0.84l-2.523,1.037l1.036,2.459l-2.524,-0.971l-0.906,2.328l-0.97,-2.395l-2.524,1.037l0.971,-2.459l-2.33,-1.037l2.33,-0.969l-0.971,-2.395l2.524,0.971l0.97,-2.523l0.906,2.525z"/>
  </g>
  <path id="svg_37" d="m127.877991,21.877991" opacity="0.5" stroke-width="1.5" stroke="#000" fill="#fff"/>
 </g>
</svg>